<?xml version="1.0" encoding="iso-8859-1"?>
<!-- Generator: Adobe Illustrator 19.0.0, SVG Export Plug-In . SVG Version: 6.00 Build 0)  -->
<svg version="1.1" id="Layer_1" xmlns="http://www.w3.org/2000/svg" xmlns:xlink="http://www.w3.org/1999/xlink" x="0px" y="0px"
	 viewBox="0 0 512 512" style="enable-background:new 0 0 512 512;" xml:space="preserve">
<g>
	<path style="fill:#449457;" d="M317.937,221.832c-26.085,1.395-54.71,7.238-80.468,22.106
		c-29.268,16.907-71.704,55.19-102.825,89.45C118.14,233.059,271.86,150.891,271.86,150.891L317.937,221.832z"/>
	<path style="fill:#449457;" d="M338.779,420.843c0,0-5.189-46.742-35.819-56.214c1.646-0.872,3.216-1.744,4.731-2.616
		c16.787-9.691,30.87-22.357,42.578-36.059l0.011-0.011C350.279,325.943,394.306,380.402,338.779,420.843z"/>
</g>
<path style="fill:#6ABE71;" d="M512,134.049l-97.963,105.354c-14.901,16.035-27.666,33.901-38.359,53.01
	c-6.835,12.209-15.228,24.897-25.398,36.8l-0.011,0.011c-11.707,13.702-25.791,26.368-42.578,36.059
	c-1.515,0.872-3.085,1.744-4.731,2.616c-42.861,22.88-128.213,46.229-171.935,49.216c-10.465,0.719-18.989,8.622-20.722,18.967
	c-3.641,21.758-10.072,45.041-24.047,71.159C85.951,447.637,51.462,387.902,0,357.827c29.541,0.959,54.492,9.789,75.868,18.793
	c9.941,4.175,21.474,0.818,27.513-8.11c7.26-10.737,17.812-23.698,30.173-37.291v-0.011c31.121-34.26,73.557-72.543,102.825-89.45
	c25.758-14.868,54.383-20.711,80.468-22.106c4.404-0.24,8.731-0.349,12.961-0.349c23.523-0.022,46.6-6.355,66.919-18.182
	L512,134.049z"/>
<path style="fill:#4EA963;" d="M474.056,156.126l-69.325,74.556c-14.901,16.035-27.666,33.901-38.359,53.01
	c-6.835,12.209-15.228,24.897-25.398,36.8l-0.011,0.011c-11.707,13.702-25.791,26.368-42.578,36.059
	c-1.515,0.872-3.085,1.744-4.731,2.616c-42.861,22.88-128.213,46.229-171.935,49.216c-10.465,0.719-18.989,8.622-20.722,18.967
	c-2.927,17.487-7.664,35.963-16.664,56.101c1.215,7.882,1.883,15.83,1.923,23.779c13.975-26.118,20.406-49.401,24.047-71.159
	c1.733-10.345,10.257-18.248,20.722-18.967c43.722-2.987,129.074-26.336,171.935-49.216c1.646-0.872,3.216-1.744,4.731-2.616
	c16.787-9.691,30.87-22.357,42.578-36.059l0.011-0.011c10.17-11.903,18.564-24.592,25.398-36.8
	c10.693-19.109,23.458-36.975,38.359-53.01L512,134.048L474.056,156.126z"/>
<circle style="fill:#449457;" cx="309.467" cy="258.528" r="8.719"/>
<g>
	<circle style="fill:#61ACD2;" cx="358.4" cy="121.388" r="21.801"/>
	<circle style="fill:#61ACD2;" cx="426.703" cy="34.553" r="29.795"/>
</g>
<g>
</g>
<g>
</g>
<g>
</g>
<g>
</g>
<g>
</g>
<g>
</g>
<g>
</g>
<g>
</g>
<g>
</g>
<g>
</g>
<g>
</g>
<g>
</g>
<g>
</g>
<g>
</g>
<g>
</g>
</svg>
