<?xml version="1.0" encoding="iso-8859-1"?>
<!-- Generator: Adobe Illustrator 19.0.0, SVG Export Plug-In . SVG Version: 6.00 Build 0)  -->
<svg version="1.1" id="Layer_1" xmlns="http://www.w3.org/2000/svg" xmlns:xlink="http://www.w3.org/1999/xlink" x="0px" y="0px"
	 viewBox="0 0 512.011 512.011" style="enable-background:new 0 0 512.011 512.011;" xml:space="preserve">
<g>
	<path style="fill:#3E81C8;" d="M175.983,219.207c-19.186-12.149-39.491-22.714-60.759-31.524l0.301-0.732
		c17.199-41.53,67.813-57.506,105.636-33.21c5.162,3.322,10.264,6.737,15.288,10.246
		C216.72,180.947,199.892,188.312,175.983,219.207z"/>
	<path style="fill:#3E81C8;" d="M325.034,396.461c-0.241,0.103-0.482,0.206-0.732,0.301c-8.638-20.838-18.953-40.773-30.809-59.614
		c30.99-23.936,38.406-40.763,55.304-60.449c3.234,4.646,6.384,9.361,9.447,14.127C382.54,328.647,366.563,379.262,325.034,396.461z
		"/>
	
		<rect x="238.206" y="1.889" transform="matrix(-0.7071 -0.7071 0.7071 -0.7071 409.8231 263.5676)" style="fill:#3E81C8;" width="42.584" height="90.036"/>
	
		<rect x="443.83" y="207.491" transform="matrix(0.7071 0.7071 -0.7071 0.7071 314.7822 -254.933)" style="fill:#3E81C8;" width="42.584" height="90.036"/>
</g>
<path style="fill:#61ACD2;" d="M483.029,206.769L419.37,270.44l-5.956-5.956c-16.321-16.321-38.851-10.915-53.717,6.746
	c-2.646,3.138-31.784,45.414-62.766,69.352c-3.516,2.715-7.33,5.509-11.511,8.43c-60.784,42.447-74.712,22.495-135.519,64.931
	c0,0,4.341,23.526,15.817,49.869c7.25,16.676,17.364,34.487,31.039,48.162c0,0-123.539,3.654-105.19-91.56
	C-3.635,438.774,0.019,315.235,0.019,315.235c35.277,35.277,98.982,47.807,98.982,47.807
	c42.447-60.796,22.495-74.723,64.931-135.531c2.978-4.261,5.841-8.166,8.613-11.74c23.915-30.902,66.694-60.567,70.05-63.613
	c16.642-15.188,21.613-36.881,5.681-52.813l-6.723-6.723l63.671-63.659l28.588,28.588c9.083,9.083,21.67,13.847,34.487,12.862
	c15.245-1.168,33.101,5.395,50.213,22.495c17.1,17.112,26.24,37.545,25.072,52.79c-0.974,12.817,1.203,22.816,10.285,31.91
	L483.029,206.769z"/>
<ellipse transform="matrix(0.7071 -0.7071 0.7071 0.7071 -120.5162 249.9916)" style="fill:#D1D5D8;" cx="241.508" cy="270.472" rx="105.727" ry="42.836"/>
<g>
	<path style="fill:#3E81C8;" d="M196.757,511.974c0,0-123.539,3.654-105.19-91.56c-0.424,17.066,42.596,33.582,74.151,43.398
		C172.968,480.488,183.082,498.298,196.757,511.974z"/>
	<path style="fill:#3E81C8;" d="M332.682,179.311c9.905,9.905,20.824,16.257,28.794,17.458c-1.201-7.971-7.552-18.889-17.458-28.794
		c-9.905-9.905-20.824-16.257-28.794-17.458C316.425,158.489,322.777,169.406,332.682,179.311z"/>
</g>
<g>
</g>
<g>
</g>
<g>
</g>
<g>
</g>
<g>
</g>
<g>
</g>
<g>
</g>
<g>
</g>
<g>
</g>
<g>
</g>
<g>
</g>
<g>
</g>
<g>
</g>
<g>
</g>
<g>
</g>
</svg>
