<?xml version="1.0" encoding="iso-8859-1"?>
<!-- Generator: Adobe Illustrator 19.0.0, SVG Export Plug-In . SVG Version: 6.00 Build 0)  -->
<svg version="1.1" id="Layer_1" xmlns="http://www.w3.org/2000/svg" xmlns:xlink="http://www.w3.org/1999/xlink" x="0px" y="0px"
	 viewBox="0 0 512 512" style="enable-background:new 0 0 512 512;" xml:space="preserve">
<g>
	<path style="fill:#449457;" d="M460.678,440.41l-61.988,61.988c-12.803,12.803-33.569,12.803-46.372,0
		c-6.389-6.401-9.596-14.794-9.596-23.186s3.207-16.784,9.596-23.186l38.814-38.802l-26.106-26.094
		c17.047-13.971,31.423-31.089,42.235-50.46c0.322,0.286,0.644,0.596,0.966,0.918l52.451,52.451
		C473.469,406.842,473.469,427.607,460.678,440.41z"/>
	<path style="fill:#449457;" d="M304.875,92.981V46.491C304.875,20.815,284.06,0,258.384,0h-4.768
		c-25.676,0-46.491,20.815-46.491,46.491v46.491H304.875z"/>
	<path style="fill:#449457;" d="M486.904,147.161c-6.401,6.389-14.794,9.596-23.186,9.596s-16.784-3.207-23.186-9.596
		l-38.802-38.814l-25.498,25.51c-15.771-15.354-34.403-27.763-55.026-36.358c1.335-2.229,57.339-58.698,57.339-58.698
		c12.803-12.791,33.569-12.791,46.371,0l61.988,61.988C499.707,113.592,499.707,134.358,486.904,147.161z"/>
	<path style="fill:#449457;" d="M190.794,97.499c-20.623,8.595-39.255,21.004-55.026,36.358l-25.498-25.51l-38.802,38.814
		c-6.401,6.389-14.794,9.596-23.186,9.596s-16.784-3.207-23.186-9.596c-12.803-12.803-12.803-33.569,0-46.372l61.988-61.988
		c12.803-12.791,33.569-12.791,46.372,0C133.455,38.802,189.459,95.27,190.794,97.499z"/>
	<path style="fill:#449457;" d="M169.277,479.212c0,8.392-3.207,16.784-9.596,23.186c-12.803,12.803-33.569,12.803-46.372,0
		L51.322,440.41c-12.791-12.803-12.791-33.569,0-46.372l52.451-52.451c0.322-0.322,0.644-0.632,0.966-0.918
		c10.812,19.371,25.188,36.489,42.235,50.46l-26.106,26.094l38.814,38.802C166.07,462.428,169.277,470.82,169.277,479.212z"/>
	<polygon style="fill:#449457;" points="213.713,424.672 253.722,499.778 292.328,424.672 	"/>
</g>
<path style="fill:#F4A026;" d="M420.768,195.979c-17.833-47.754-55.837-85.674-103.65-103.4
	C298.08,85.521,277.493,81.659,256,81.659s-42.08,3.862-61.117,10.919c-47.814,17.726-85.817,55.646-103.65,103.4
	C84.08,215.123,80.17,235.853,80.17,257.49c0,21.636,3.91,42.354,11.05,61.499c17.833,47.754,55.837,85.686,103.662,103.412
	c19.037,7.057,39.624,10.919,61.117,10.919s42.08-3.862,61.117-10.919c47.826-17.726,85.829-55.658,103.662-103.412
	c7.14-19.145,11.05-39.863,11.05-61.499C431.83,235.853,427.92,215.123,420.768,195.979z"/>
<g>
	<path style="fill:#EB7830;" d="M187.456,326.368c-37.348-1.335-71.322-3.803-96.236-7.379c-7.141-19.145-11.05-39.863-11.05-61.499
		s3.91-42.366,11.062-61.511c24.914-3.576,58.888-6.044,96.224-7.367C185.871,232.921,185.871,282.058,187.456,326.368z"/>
	<path style="fill:#EB7830;" d="M324.544,326.368c-1.347,37.348-3.815,71.274-7.427,96.033
		c-19.037,7.057-39.624,10.919-61.117,10.919s-42.08-3.862-61.117-10.919c-3.612-24.759-6.08-58.686-7.427-96.033
		C231.586,327.941,280.414,327.941,324.544,326.368z"/>
	<path style="fill:#EB7830;" d="M324.544,188.612c-44.13-1.585-92.958-1.585-137.088,0c1.347-37.348,3.815-71.274,7.427-96.033
		C213.92,85.521,234.507,81.659,256,81.659s42.08,3.862,61.117,10.919C320.729,117.338,323.197,151.264,324.544,188.612z"/>
	<path style="fill:#EB7830;" d="M431.83,257.489c0,21.636-3.91,42.354-11.05,61.499c-24.914,3.576-58.888,6.044-96.236,7.379
		c1.585-44.309,1.585-93.446,0-137.756c37.336,1.323,71.31,3.791,96.224,7.367C427.92,215.123,431.83,235.853,431.83,257.489z"/>
</g>
<g>
</g>
<g>
</g>
<g>
</g>
<g>
</g>
<g>
</g>
<g>
</g>
<g>
</g>
<g>
</g>
<g>
</g>
<g>
</g>
<g>
</g>
<g>
</g>
<g>
</g>
<g>
</g>
<g>
</g>
</svg>
