<?xml version="1.0" encoding="iso-8859-1"?>
<!-- Generator: Adobe Illustrator 18.0.0, SVG Export Plug-In . SVG Version: 6.00 Build 0)  -->
<!DOCTYPE svg PUBLIC "-//W3C//DTD SVG 1.1//EN" "http://www.w3.org/Graphics/SVG/1.1/DTD/svg11.dtd">
<svg version="1.1" id="Capa_1" xmlns="http://www.w3.org/2000/svg" xmlns:xlink="http://www.w3.org/1999/xlink" x="0px" y="0px"
	 viewBox="0 0 467.26 467.26" style="enable-background:new 0 0 467.26 467.26;" xml:space="preserve">
<g>
	<path style="fill:#3B9352;" d="M188.202,343.884l-9.688,10.569l5.578,4.404l2.894,14.092h-56.913c0,0-5.285-22.9,3.523-35.23
		l-10.569-30.827c0,0,9.688-20.257,34.35-24.661c0,0,27.304,3.523,36.111,14.973L188.202,343.884z"/>
	<path style="fill:#3B9352;" d="M334.408,301.021l1.466,30.496c0.387,8.059-1.652,16.049-5.855,22.936l0,0l6.738,4.404l2.894,14.092
		h-41.879c0,0-6.814-29.652-1.53-67.818L334.408,301.021z"/>
	<path style="fill:#775C38;" d="M53.983,338.914c0,0-18-0.667-29.333-21.333c0,0,19.827,12.698,38.58,11.349L53.983,338.914z"/>
	<path style="fill:#775C38;" d="M41.046,355.581c0,0-18-0.667-29.333-21.333c0,0,19.827,12.698,38.58,11.349L41.046,355.581z"/>
	<path style="fill:#775C38;" d="M200.063,164.722c0,0-9.746-14.032-10.913-33.587c0,0,8.975-20.095,28.571-36.825
		c0,0,23.545,19.047,28.571,36.825c0,0-0.851,17.395-10.913,33.587H200.063z"/>
	<path style="fill:#775C38;" d="M252.505,167.597c0,0-0.618-17.073,8.968-34.157c0,0,18.411-12.058,43.94-15.545
		c0,0,9.518,28.75,4.139,46.424c0,0-10.117,14.176-27.333,22.363L252.505,167.597z"/>
	<path style="fill:#775C38;" d="M187.897,169.668c0,0-1.302-17.035-12.745-32.935c0,0-19.648-9.916-45.407-10.516
		c0,0-6.232,29.636,1.097,46.596c0,0,11.644,12.951,29.669,19.154L187.897,169.668z"/>
	<path style="fill:#775C38;" d="M130.232,212.117c0,0-4.071-12.217-15.348-21.748c0,0-16.181-3.653-35.125,0.624
		c0,0,0.87,22.81,9.333,33.868c0,0,10.884,7.338,25.2,8.573L130.232,212.117z"/>
	<path style="fill:#775C38;" d="M101.028,257.843c0,0-7.632-8.556-20.212-12.378c0,0-14.519,2.712-28.504,12.883
		c0,0,8.746,18.347,19.562,24.409c0,0,11.486,2.166,23.628-1.866L101.028,257.843z"/>
	<path style="fill:#46AF64;" d="M467.26,215.611c-0.32,3.19-0.79,5.94-1.34,8.3c-2.11,9.23-5.32,12.47-5.32,12.47l-65.02,7.91
		c0,0-14.09,61.35-32.99,77.57c0,0-87.42,34.57-200.21,15.36c0,0-102.38,29.88-162.38,28.84c0,0,72.22-35.71,85.72-58.23
		c0,0,3.84-50.35,10.76-63.97c0,0,14.42-20.05,38.4-42.33c3.93-3.64,8.12-7.35,12.54-11.03c7.77-6.5,16.28-12.93,25.39-18.86
		c3.6-2.36,7.29-4.63,11.08-6.79c8.31-4.77,17.04-9.05,26.13-12.54c2.6-1.02,5.24-1.96,7.9-2.83c0,0,7.25-0.11,19.34,2.27
		c7.22,1.41,16.16,3.71,26.31,7.45c6.66,2.45,13.83,5.52,21.39,9.36h0.01c5.69,2.89,11.59,6.21,17.64,10.04
		c2.52,1.6,5.07,3.28,7.64,5.07c5.62,3.88,11.35,8.2,17.13,13.02c0,0,6.97,47.65,20.31,58.08c0,0,22.46-26.2,27.13-49.41
		c1.14-5.67,5.19-10.31,10.53-12.47l25.507-10.416c3.931-1.605,8.367-1.372,12.106,0.641
		C435.778,190.014,464.941,206.574,467.26,215.611z"/>
	<path style="fill:#389350;" d="M347.682,254.775c0,0,14.28,12.483,26.024,14.539c0,0-20.461-12.562-21.387-20.373L347.682,254.775z
		"/>
	<polygon style="fill:#4D4D4D;" points="428.313,205.312 410.991,203.844 411.872,199.146 425.377,196.504 430.368,200.321 	"/>
	<path style="fill:#62CC7E;" d="M465.92,223.911c-2.11,9.23-5.32,12.47-5.32,12.47l-65.02,7.91c0,0-14.09,61.35-32.99,77.57
		c0,0-20.4,8.06-54.2,14.24c-12.26,2.24-26.28,4.23-41.74,5.49c-21.81,1.79-46.46,2.14-73.02-0.29
		c-10.16-0.93-20.59-2.26-31.25-4.08c0,0-8.06,2.35-20.98,5.72c-33.13,8.61-98.23,23.87-141.4,23.12
		c55.82,0.48,127.97-44.5,127.97-44.5c16.02-7.45,32.81-11.92,46.12-14.56c13.12-2.61,26.63-2.05,39.67,0.96
		c18.98,4.38,44.63,4.94,69.04,3.48c5.23-0.31,10.41-0.71,15.45-1.19c26.03-2.47,48.46-6.91,56.52-10.84
		c18.94-9.25,38.31-63.86,38.31-63.86C403.21,222.341,465.92,223.911,465.92,223.911z"/>
	<path style="fill:#58A366;" d="M193.63,341.301c-10.16-0.93-20.59-2.26-31.25-4.08c0,0-8.06,2.35-20.98,5.72
		c-2.95-0.51-4.75-0.86-4.75-0.86l42.61-31.1C179.26,310.981,179.11,330.531,193.63,341.301z"/>
	<path style="fill:#58A366;" d="M308.39,336.101c-12.26,2.24-26.28,4.23-41.74,5.49c13-6.99,16.15-30.15,16.15-30.15l13.44-6.31
		l2.01,5.12L308.39,336.101z"/>
	<path style="fill:#46AF64;" d="M175.535,343.884l-9.688,10.569l5.578,4.404l4.225,14.092h-58.245c0,0-5.285-22.9,3.523-35.23
		l-10.569-30.827c0,0,9.688-20.257,34.35-24.661c0,0,27.304,3.523,36.111,14.973L175.535,343.884z"/>
	<path style="fill:#46AF64;" d="M321.741,301.021l1.466,30.496c0.387,8.059-1.652,16.049-5.855,22.936l0,0l6.738,4.404l3.227,14.092
		h-42.212c0,0-6.814-29.652-1.529-67.818L321.741,301.021z"/>
	<polygon style="fill:#389350;" points="317.352,354.453 301.317,359.248 324.09,358.857 	"/>
	<polygon style="fill:#389350;" points="165.847,354.453 150.983,358.857 171.425,358.857 	"/>
	<path style="fill:#389350;" d="M310.25,183.671c-8.68,14.75-20.92,39.34-24.27,65.24c0,0,0.62-44.91,16.63-70.31
		C305.13,180.201,307.68,181.881,310.25,183.671z"/>
	<path style="fill:#389350;" d="M284.96,168.561c-30.62,28.35-39.64,77.69-39.64,77.69c-2.37-47.2,10.69-75.08,18.25-87.05
		C270.23,161.651,277.4,164.721,284.96,168.561z"/>
	<path style="fill:#389350;" d="M220.65,233.581c-9-21.36-10.41-67.36-10.63-81.27c2.6-1.02,5.24-1.96,7.9-2.83
		c0,0,7.25-0.11,19.34,2.27C219.27,185.781,220.65,233.581,220.65,233.581z"/>
	<path style="fill:#389350;" d="M196.65,228.911c0,0-18.42-23.76-23.84-57.27c3.6-2.36,7.29-4.63,11.08-6.79
		C183.23,178.521,184.01,205.031,196.65,228.911z"/>
	<path style="fill:#389350;" d="M164.65,238.251c-18.21-12.44-26.36-27.83-29.77-36.72c3.93-3.64,8.12-7.35,12.54-11.03
		C150.9,217.141,164.65,238.251,164.65,238.251z"/>
</g>
<g>
</g>
<g>
</g>
<g>
</g>
<g>
</g>
<g>
</g>
<g>
</g>
<g>
</g>
<g>
</g>
<g>
</g>
<g>
</g>
<g>
</g>
<g>
</g>
<g>
</g>
<g>
</g>
<g>
</g>
</svg>
