<?xml version="1.0" encoding="iso-8859-1"?>
<!-- Generator: Adobe Illustrator 18.0.0, SVG Export Plug-In . SVG Version: 6.00 Build 0)  -->
<!DOCTYPE svg PUBLIC "-//W3C//DTD SVG 1.1//EN" "http://www.w3.org/Graphics/SVG/1.1/DTD/svg11.dtd">
<svg version="1.1" id="Capa_1" xmlns="http://www.w3.org/2000/svg" xmlns:xlink="http://www.w3.org/1999/xlink" x="0px" y="0px"
	 viewBox="0 0 459.871 459.871" style="enable-background:new 0 0 459.871 459.871;" xml:space="preserve">
<g>
	<path style="fill:#A56F42;" d="M271.238,206.214c0,0,6.9,26.285,3.114,50.722c0,0,62.036,28.991,59.798,64.046l21.93,5.553
		l8.719-14.78c0,0-25.514-61.199-54.235-75.85c0,0,8.619-21.84,8.979-34.104"/>
	<path style="fill:#A56F42;" d="M277.906,239.534c0,0-1.873,26.259-12.261,48.226l-24.988,27.345
		c-3.665,4.011-8.37,6.916-13.592,8.414c-14.416,4.136-43.965,14.044-46.428,26.363l11.443,35.148h20.435l4.904,17.165h-39.235
		l-24.522-54.765l38.417-42.504l-10.626-20.435c0,0-3.27-34.33,1.635-53.13"/>
	<path style="fill:#A56F42;" d="M265.752,167.375c0,0-8.757-20.763-7.483-43.957c0.846-15.399-8.32-29.623-22.652-35.318
		c-17.65-7.014-42.989-13.916-73.306-13.158c0,0-59.997,16.499-91.495,52.497c0,0-20.999,47.998-26.999,89.995l-9.218,83.584
		l115.713-100.083L265.752,167.375z"/>
	<path style="fill:#C98C51;" d="M459.75,133.497l-0.51,5.01l-4.5-3.75c-2.24,5.57-11.95,11.74-16.47,14.38
		c-2.18-0.42-4.04-0.97-5.36-1.41c-1.17-0.39-2.27-0.98-3.21-1.79c-20.43-17.75-58.13-5.74-58.53-5.74l-23.52,13.24
		c0,0-4.03,45.42-31.29,92.28c-5.66,9.73-12.33,19.52-20.16,28.98c-0.79,0.95-1.6,1.9-2.41,2.84c-0.49,0.59-1,1.18-1.52,1.77
		c-6.61,7.5-13.78,13.13-21.23,17.24c-16.29,9.01-33.95,10.77-50.16,9.18c-13.87-1.36-26.67-5.18-36.66-9.03
		c-12.72-4.89-20.87-9.83-20.87-9.83s-19.59-14.36-37.53-19.42c-2.73-0.78-5.42-1.34-7.99-1.59c-19.52-1.97-35.24,23.56-52.09,44.04
		C48.88,330.387,0,342.717,0,342.717c21.88-13.41,34.6-41.7,34.6-41.7c5.2-31.58,19.75-64.04,33.13-88.77
		c13.64-25.26,26.08-42.47,26.08-42.47c3.26-3.54,7.07-6.77,11.26-9.71c10.93-7.66,24.42-13.33,37.35-17.46
		c24.14-7.72,46.33-10.09,46.33-10.09c5.88,0.45,11.85,1.67,17.73,3.37c0.02,0,0.02,0,0.02,0c30.82,8.93,59.25,31.49,59.25,31.49
		c13.94-48.71,50.09-97.65,50.09-97.65c6.9-4.41,15.75-7.23,24.53-9.01c18.05-3.67,35.82-2.99,35.82-2.99
		c25.24,8.53,23.11,36.71,62.3,40.95c9.19,0.99,11.94,12.43,15.73,16.91C458.42,120.557,460.4,127.017,459.75,133.497z"/>
	<path style="fill:#B27747;" d="M220.877,305.714v0.012c-13.867-1.361-26.667-5.174-36.66-9.024l38.094-49.129
		C222.312,247.573,229.95,284.441,220.877,305.714z"/>
	<path style="fill:#B27747;" d="M293.793,277.538c-0.49,0.589-1.005,1.177-1.52,1.766c-6.608,7.504-13.781,13.131-21.236,17.239
		c-4.353-19.777-17.557-37.396-17.557-37.396l22.486-36.868L293.793,277.538z"/>
	<path style="fill:#B27747;" d="M316.365,245.721c-5.664,9.723-12.334,19.519-20.169,28.972l-13.83-32.565l24.252-16.491
		l4.622,9.612L316.365,245.721z"/>
	<path style="fill:#C98C51;" d="M275.364,212.978c0,0-3.685,26.925-16.535,48.052c0,0,48.29,54.959,30.733,82.056l18.135,13.524
		l13.712-10.318c0,0-0.149-66.304-21.077-90.832c0,0,16.322-16.879,21.348-28.071"/>
	<path style="fill:#B27747;" d="M371.171,140.192c0,0-24.96,4.216-40.853-5.897l17.337,19.139L371.171,140.192z"/>
	<path style="fill:#B27747;" d="M128.423,231.36c0,0-12.296,16.317-10.598,34.494l20.365,3.51L128.423,231.36z"/>
	<path style="fill:#C98C51;" d="M223.24,239.534c0,0-1.873,26.259-12.261,48.226l-24.988,27.345
		c-3.665,4.011-8.37,6.916-13.592,8.414c-14.416,4.136-43.965,14.044-46.428,26.363l11.443,35.148h20.435l4.904,17.165h-39.235
		l-24.522-54.765l38.417-42.504l-10.626-20.435c0,0-3.27-34.33,1.635-53.13L223.24,239.534z"/>
	<path style="fill:#A56F42;" d="M442.19,128.947c6.24,1.99,10.08,4.09,12.55,5.81c-0.65,1.62-1.94,3.3-3.55,4.93
		c-6.21-3.3-15.58-7.14-35.67-9.41c-33.67-3.79-41.23,10.04-54,2.67c-12.77-7.37-7.33-21.33-7.33-21.33s3.33,21.33,20,15.33
		C390.86,120.947,422.55,122.667,442.19,128.947z"/>
	<path style="fill:#A56F42;" d="M458.32,137.747l-3.56-2.97C456.51,135.997,457.57,137.037,458.32,137.747z"/>
	<path style="fill:#C98C51;" d="M458.38,137.797l0.86,0.71C458.99,138.347,458.72,138.107,458.38,137.797z"/>
	<polygon style="fill:#4D4D4D;" points="377.547,76.714 379.35,89.256 395.275,86.256 	"/>
	<path style="fill:#C98C51;" d="M242.19,161.197c0,0-0.086-43.408,2.5-54.5l-10,48L242.19,161.197z"/>
	<polygon style="fill:#C98C51;" points="224.69,147.697 227.19,93.697 213.69,143.697 	"/>
	<polygon style="fill:#C98C51;" points="202.19,141.197 204.19,85.697 193.69,140.197 	"/>
	<polygon style="fill:#C98C51;" points="177.19,142.197 187.69,140.197 184.19,84.197 	"/>
	<polygon style="fill:#C98C51;" points="168.69,143.197 163.19,87.197 157.69,146.697 	"/>
	<polygon style="fill:#C98C51;" points="149.69,148.197 142.19,93.697 141.69,150.197 	"/>
	<polygon style="fill:#C98C51;" points="122.69,113.697 134.69,151.697 126.69,153.197 	"/>
	<polygon style="fill:#C98C51;" points="104.69,124.697 120.69,162.197 112.19,163.697 	"/>
	<polygon style="fill:#C98C51;" points="85.19,136.697 107.69,171.197 97.69,177.697 	"/>
	<polygon style="fill:#C98C51;" points="74.19,155.697 97.69,177.697 91.69,186.197 	"/>
	<polygon style="fill:#C98C51;" points="68.69,172.197 88.69,191.697 81.69,199.197 	"/>
	<polygon style="fill:#C98C51;" points="59.69,188.197 77.69,206.197 73.69,213.197 	"/>
	<polygon style="fill:#C98C51;" points="54.19,208.197 69.19,218.697 64.19,227.197 	"/>
</g>
<g>
</g>
<g>
</g>
<g>
</g>
<g>
</g>
<g>
</g>
<g>
</g>
<g>
</g>
<g>
</g>
<g>
</g>
<g>
</g>
<g>
</g>
<g>
</g>
<g>
</g>
<g>
</g>
<g>
</g>
</svg>
