<?xml version="1.0" encoding="iso-8859-1"?>
<!-- Generator: Adobe Illustrator 18.0.0, SVG Export Plug-In . SVG Version: 6.00 Build 0)  -->
<!DOCTYPE svg PUBLIC "-//W3C//DTD SVG 1.1//EN" "http://www.w3.org/Graphics/SVG/1.1/DTD/svg11.dtd">
<svg version="1.1" id="Capa_1" xmlns="http://www.w3.org/2000/svg" xmlns:xlink="http://www.w3.org/1999/xlink" x="0px" y="0px"
	 viewBox="0 0 444.045 444.045" style="enable-background:new 0 0 444.045 444.045;" xml:space="preserve">
<g>
	<path style="fill:#AFB7A3;" d="M408.724,208.364l20.73-15.35l1.333,6c0,0,3.48,9.396-3.927,20.365
		c-7.407,10.969-12.74,9.635-12.74,9.635L408.724,208.364z"/>
	<path style="fill:#96633E;" d="M374.12,291.011l-8.13,5.44l-10.35,6.92c0,0-44.79,8.22-82.66,14.9c-5.17,0.91-10.22,1.79-15,2.62
		c-3.4,0.59-7.02,1.11-10.82,1.58v0.01c-21.91,2.72-49.4,3.59-70.11,3.82c-17.76,0.18-30.54-0.1-30.54-0.1l-7.01-1.98l-20.75-5.86
		l-21.08-5.96c-2.84,1.09-5.79,2.08-8.82,2.99l-0.01,0.01C50.59,326.881,0,324.6,0,324.6c28.14-12.2,78.56-79.62,78.56-79.62
		c15.93-75.37,49.9-112,49.9-112c55.73-21.23,110.94-18.58,110.94-18.58c31.85,5.31,61.61,31.26,61.61,31.26L374.12,291.011z"/>
	<path style="fill:#AF754A;" d="M365.99,296.451l-10.35,6.92c0,0-44.79,8.22-82.66,14.9c-5.17,0.91-10.22,1.79-15,2.62
		c-3.4,0.59-7.02,1.11-10.82,1.58v0.01c-21.91,2.72-49.4,3.59-70.11,3.82c-17.76,0.18-30.54-0.1-30.54-0.1l-7.01-1.98l-20.75-5.86
		l-21.08-5.96c-2.84,1.09-5.79,2.08-8.82,2.99l-0.01,0.01C50.59,326.881,0,324.6,0,324.6s60.79-13.59,96.12-48.25
		c35.33-34.67,189.33-36.67,248-1.34C353.25,280.511,360.41,287.891,365.99,296.451z"/>
	<path style="fill:#96633E;" d="M272.984,318.274c-5.17,0.91-10.22,1.79-15,2.62c-3.4,0.59-7.02,1.11-10.82,1.58
		c6.43-12.06,6.15-32.81,6.15-32.81L272.984,318.274z"/>
	<polygon style="fill:#AF754A;" points="265.126,338.567 262.724,354.779 331.774,354.779 328.172,339.168 314.362,336.766 
		317.364,307.945 310.626,286.266 271.035,268.544 253.313,289.66 	"/>
	<path style="fill:#96633E;" d="M123.734,315.044l-4.98,3.32l-21.08-5.96c-2.84,1.09-5.79,2.08-8.82,2.99l19.19-30.64
		L123.734,315.044z"/>
	<path style="fill:#96633E;" d="M177.054,326.304c-17.76,0.18-30.54-0.1-30.54-0.1l-7.01-1.98l10.23-22.68l9.104-48.186
		c0,0,20.822,72.893,29.292,72.763C188.239,326.122,176.944,326.294,177.054,326.304z"/>
	<path style="fill:#AF754A;" d="M440.57,299.661l-12.74-14.87l-12.74-3.71l-7.81,16.61v0c-0.421,0.891-1.285,1.49-2.267,1.572
		l-49.373,4.108c0,0-6.28-2.16-14.81-5.95l10.57-21.12l-29.95-33.95l-11.82,0.19c-12.93,0.22-23.89-9.41-25.37-22.26
		c-1.09-9.39-1.2-19.77,0.26-31.03c0,0,7.96-39.28,29.72-61.58c0,0,20.17-23.35,45.12-33.97l1.62,2.7
		c2.87,4.79,3.29,10.65,1.13,15.8c-7.15,17.04-20.93,58.61-3.28,93.5c0,0,24.79-0.81,49.89,2.66c0,0,2.333,0.982,5.997,3.028
		c18.73,10.464,29.949,30.567,29.302,52.011C443.686,274.422,442.759,287.402,440.57,299.661z"/>
	<polygon style="fill:#AF754A;" points="102.368,309.146 110.174,338.567 107.772,354.779 176.822,354.779 173.22,339.168 
		159.41,336.766 162.412,307.945 158.573,285.135 158.838,253.359 108.047,284.758 	"/>
	<path style="fill:#4D4D4D;" d="M364.364,213.379c0,0,5.556,4.69,13.659,4.433l1.222-4.094c0,0-5.869-6.032-10.555-8.858
		C368.69,204.861,362.885,209.371,364.364,213.379z"/>
	<polygon style="fill:#96633E;" points="159.41,336.766 137.734,340.544 160.494,326.352 	"/>
	<polygon style="fill:#96633E;" points="314.362,336.766 292.734,341.544 315.807,322.896 	"/>
	<path style="fill:#AF754A;" d="M352.514,188.114l15.729,2.546c9.093,1.472,16.859,7.367,20.721,15.73v0l-46.843,5.957
		L352.514,188.114z"/>
	<path style="fill:#96633E;" d="M424.118,236.848c-0.397,0-0.8-0.095-1.175-0.294l-10-5.333c-1.218-0.65-1.679-2.164-1.029-3.382
		c0.65-1.219,2.165-1.679,3.383-1.03l10,5.333c1.218,0.65,1.679,2.164,1.029,3.382C425.876,236.367,425.012,236.848,424.118,236.848
		z"/>
	<circle style="fill:#AF754A;" cx="285.489" cy="225.658" r="8.631"/>
	<circle style="fill:#AF754A;" cx="283.114" cy="208.523" r="8.631"/>
	<circle style="fill:#AF754A;" cx="284.364" cy="191.273" r="8.631"/>
	<circle style="fill:#AF754A;" cx="287.864" cy="174.523" r="8.631"/>
	<circle style="fill:#AF754A;" cx="294.12" cy="158.812" r="8.631"/>
	<circle style="fill:#AF754A;" cx="302.439" cy="144.53" r="8.631"/>
	<circle style="fill:#AF754A;" cx="311.638" cy="130.018" r="8.631"/>
	<circle style="fill:#AF754A;" cx="323.972" cy="117.851" r="8.631"/>
	<circle style="fill:#AF754A;" cx="337.506" cy="107.24" r="8.631"/>
	<circle style="fill:#AF754A;" cx="351.877" cy="97.897" r="8.631"/>
	<path style="fill:#96633E;" d="M415.094,281.084l-7.811,16.607c-0.42,0.893-1.285,1.494-2.269,1.576l-38.592,3.211
		c-6.918,0.576-13.791-1.54-19.188-5.905l0,0c-9.025-7.3-12.364-19.558-8.287-30.426l1.043-2.782l11.413,12.94L415.094,281.084z"/>
	<circle style="fill:#AF754A;" cx="140.12" cy="149.014" r="7.333"/>
	<circle style="fill:#AF754A;" cx="91.911" cy="255.681" r="7.333"/>
	<circle style="fill:#AF754A;" cx="264.12" cy="141.681" r="7.333"/>
	<circle style="fill:#AF754A;" cx="149.787" cy="161.681" r="3.667"/>
	<circle style="fill:#AF754A;" cx="77.787" cy="263.014" r="3.667"/>
	<circle style="fill:#AF754A;" cx="282.63" cy="144.681" r="3.667"/>
	<circle style="fill:#AF754A;" cx="272.473" cy="158.014" r="3.667"/>
	<circle style="fill:#AF754A;" cx="159.787" cy="146.681" r="9.667"/>
	<circle style="fill:#AF754A;" cx="242.397" cy="135.681" r="9.667"/>
	<path style="fill:#AFB7A3;" d="M343.316,191.284c-10.424-7.489-6.858-23.769,5.73-26.276c17.191-3.423,40.534-6.039,67.043-3.566
		c6.15,0.574,12.471,1.421,18.925,2.596l-0.011,0.02c-3.255,6.052-9.183,10.196-15.98,11.208
		c-15.194,2.262-43.01,7.458-59.622,16.96c-4.967,2.841-11.107,2.635-15.753-0.703L343.316,191.284z"/>
</g>
<g>
</g>
<g>
</g>
<g>
</g>
<g>
</g>
<g>
</g>
<g>
</g>
<g>
</g>
<g>
</g>
<g>
</g>
<g>
</g>
<g>
</g>
<g>
</g>
<g>
</g>
<g>
</g>
<g>
</g>
</svg>
