<?xml version="1.0" encoding="iso-8859-1"?>
<!-- Generator: Adobe Illustrator 19.0.0, SVG Export Plug-In . SVG Version: 6.00 Build 0)  -->
<svg version="1.1" id="Layer_1" xmlns="http://www.w3.org/2000/svg" xmlns:xlink="http://www.w3.org/1999/xlink" x="0px" y="0px"
	 viewBox="0 0 512 512" style="enable-background:new 0 0 512 512;" xml:space="preserve">
<path style="fill:#2C82C9;" d="M255.176,108.879c0,0-49.526-70.409-164.498-5.917c0,0,51.004,9.956,80.7,48.125L255.176,108.879z"/>
<path style="fill:#54ACD2;" d="M100.821,337.465c0,0-85.422-5.228-100.821,46.679l66.043,16.923
	c6.199,2.034,12.986,1.139,18.445-2.432l4.974-3.254c12.606-8.247,29.565-1.282,32.736,13.445l0.101,0.467
	c2.001,9.295,9.863,16.126,19.344,16.845l67.701,10.105c2.011-59.226-59.972-87.379-59.972-87.379l-2.693-1.499
	c0,0,38.161-170.044,268.885-96.689c0,0,52.993,18.321,64.644,24.483c15.148,8.014,58.228-23.815,8.52-57.675
	c0,0,4.564-36.091-27.426-76.182c-6.441-8.145-14.204-15.171-23.058-20.594c-28.687-17.568-99.761-47.716-209.356-7.805
	C82.76,166.12,94.467,304.003,105.865,336.986L100.821,337.465z"/>
<circle style="fill:#2C82C9;" cx="435.384" cy="180.917" r="9.736"/>
<g>
</g>
<g>
</g>
<g>
</g>
<g>
</g>
<g>
</g>
<g>
</g>
<g>
</g>
<g>
</g>
<g>
</g>
<g>
</g>
<g>
</g>
<g>
</g>
<g>
</g>
<g>
</g>
<g>
</g>
</svg>
