<?xml version="1.0" encoding="iso-8859-1"?>
<!-- Generator: Adobe Illustrator 19.0.0, SVG Export Plug-In . SVG Version: 6.00 Build 0)  -->
<svg version="1.1" id="Layer_1" xmlns="http://www.w3.org/2000/svg" xmlns:xlink="http://www.w3.org/1999/xlink" x="0px" y="0px"
	 viewBox="0 0 512 512" style="enable-background:new 0 0 512 512;" xml:space="preserve">
<g>
	<path style="fill:#61ACD2;" d="M3.088,488.211l-0.149-0.149c-4.051-4.051-3.906-10.706,0.381-14.507
		c17.464-15.485,31.076-20.612,44.29-25.589c13.683-5.153,26.607-10.021,44.784-28.198c18.178-18.178,23.044-31.101,28.198-44.784
		c5.682-15.086,11.558-30.689,32.818-51.95c21.26-21.26,36.86-27.134,51.949-32.817c13.682-5.153,26.605-10.021,44.782-28.196
		l14.287,14.288c-21.26,21.26-36.86,27.134-51.949,32.817c-13.682,5.153-26.605,10.021-44.782,28.196
		c-18.178,18.178-23.044,31.101-28.198,44.784c-5.682,15.088-11.558,30.689-32.818,51.951c-21.261,21.26-36.862,27.136-51.95,32.818
		c-11.916,4.488-23.255,8.759-37.989,21.79C12.8,492.152,6.81,491.933,3.088,488.211z"/>
	<path style="fill:#61ACD2;" d="M99.18,507.513l-0.143-0.143c-3.807-3.807-3.902-9.941-0.242-13.889
		c18.329-19.767,24.956-33.861,31.932-48.694c8.161-17.357,16.599-35.305,42.625-61.33c26.027-26.024,43.975-34.465,61.332-42.626
		c16.513-7.764,32.111-15.098,55.64-38.629l14.287,14.287c-26.027,26.026-43.975,34.465-61.332,42.626
		c-16.513,7.764-32.111,15.099-55.642,38.629s-30.863,39.127-38.629,55.639c-7.354,15.645-14.937,31.77-35.42,53.857
		C109.736,511.399,103.188,511.522,99.18,507.513z"/>
	<path style="fill:#61ACD2;" d="M18.817,427.151l-0.143-0.143c-3.807-3.807-3.902-9.941-0.242-13.889
		c18.329-19.767,24.956-33.861,31.932-48.694c8.161-17.357,16.6-35.305,42.625-61.33c26.027-26.026,43.975-34.465,61.332-42.626
		c16.513-7.764,32.111-15.099,55.64-38.629l14.287,14.287c-26.027,26.024-43.975,34.465-61.332,42.626
		c-16.513,7.764-32.111,15.098-55.64,38.629c-23.531,23.529-30.863,39.127-38.629,55.639c-7.354,15.645-14.937,31.77-35.42,53.857
		C29.373,431.036,22.825,431.16,18.817,427.151z"/>
	<path style="fill:#61ACD2;" d="M18.744,346.716l-0.148-0.148c-3.723-3.723-3.941-9.715-0.453-13.657
		c13.072-14.771,17.359-26.132,21.866-38.07c5.7-15.104,11.596-30.721,32.89-52.016c21.295-21.294,36.912-27.19,52.016-32.89
		c13.704-5.174,26.648-10.058,44.864-28.276l14.287,14.287c-21.295,21.294-36.913,27.189-52.016,32.89
		c-13.705,5.174-26.648,10.058-44.864,28.276c-18.218,18.215-23.102,31.16-28.276,44.864c-4.996,13.234-10.139,26.862-25.661,44.359
		C29.449,350.62,22.795,350.767,18.744,346.716z"/>
	<path style="fill:#61ACD2;" d="M179.469,507.44l-0.148-0.148c-3.723-3.723-3.941-9.715-0.453-13.657
		c13.072-14.771,17.359-26.132,21.866-38.07c5.7-15.104,11.596-30.721,32.89-52.016c21.295-21.294,36.913-27.19,52.016-32.89
		c13.705-5.174,26.65-10.058,44.864-28.276l14.288,14.287c-21.295,21.294-36.913,27.189-52.016,32.89
		c-13.705,5.174-26.648,10.058-44.864,28.276c-18.218,18.215-23.102,31.16-28.276,44.864c-4.996,13.234-10.139,26.862-25.661,44.359
		C190.173,511.345,183.521,511.491,179.469,507.44z"/>
</g>
<polygon style="fill:#495577;" points="347.33,369.312 138.388,160.37 169.64,111.259 397.333,338.952 "/>
<path style="fill:#61ACD2;" d="M448.817,65.842c-42.038-42.341-95.428-64.78-147.984-64.275
	c-45.106,0.429-89.581,17.767-125.76,53.946c-7.627,7.64-14.509,15.734-20.646,24.195c-5.784,7.981-4.963,18.954,1.995,25.912
	l251.607,251.595c6.933,6.945,17.881,7.817,25.824,2.058c9.951-7.198,19.396-15.431,28.16-24.7
	c33.602-35.484,49.614-78.38,49.981-121.782C512.448,160.563,490.261,107.577,448.817,65.842z"/>
<path style="fill:#495577;" d="M511.993,212.791l-53.049-12.413l-13.815-59.035l-59.022-13.815l-13.815-59.022l-59.022-13.815
	L300.832,1.567c52.557-0.505,105.947,21.934,147.984,64.275C490.261,107.577,512.448,160.563,511.993,212.791z"/>
<g>
</g>
<g>
</g>
<g>
</g>
<g>
</g>
<g>
</g>
<g>
</g>
<g>
</g>
<g>
</g>
<g>
</g>
<g>
</g>
<g>
</g>
<g>
</g>
<g>
</g>
<g>
</g>
<g>
</g>
</svg>
