<?xml version="1.0" encoding="iso-8859-1"?>
<!-- Generator: Adobe Illustrator 18.0.0, SVG Export Plug-In . SVG Version: 6.00 Build 0)  -->
<!DOCTYPE svg PUBLIC "-//W3C//DTD SVG 1.1//EN" "http://www.w3.org/Graphics/SVG/1.1/DTD/svg11.dtd">
<svg version="1.1" id="Capa_1" xmlns="http://www.w3.org/2000/svg" xmlns:xlink="http://www.w3.org/1999/xlink" x="0px" y="0px"
	 viewBox="0 0 472.137 472.137" style="enable-background:new 0 0 472.137 472.137;" xml:space="preserve">
<g>
	<path style="fill:#B77D4E;" d="M289.804,276.3c0,0-2.314-32.392-12.34-59.385c0,0-29.307-13.111-55.529-13.882
		c0,0-24.816,24.111-30.078,41.646s-6.941,92.548-6.941,92.548s29.645,32.392,45.07,57.842h84.835v0
		c-4.697-10.333-15-16.967-26.35-16.967h-28.407l-14.992-29.307C245.073,348.795,272.837,311.005,289.804,276.3z"/>
	<path style="fill:#C98C51;" d="M461.968,196.347c-0.022-0.022-0.055-0.044-0.109-0.087l-3.924-2.899
		c-10.53,9.156-26.989,9.396-26.989,9.396c-15.424-16.972-56.126-16.438-56.126-16.438
		C350.141,241.846,274.558,313.57,274.558,313.57c-33.29-5.537-64.704-20.133-89.208-34.521
		c-9.145-5.363-17.332-10.704-24.286-15.533c-15.849-10.998-25.322-19.348-25.322-19.348c-26.978,26.095-53.063,39.59-75.027,46.294
		c-7.848,2.398-15.173,3.935-21.823,4.862C15.184,298.636,0,294.298,0,294.298c86.163-33.827,117.572-101.841,125.844-124.296
		c2.334-6.335,6.097-12.066,11.125-16.572c29.061-26.042,71.983-24.253,92.35-21.56c7.04,0.931,13.724,3.624,19.434,7.845
		l20.726,15.319l8.938,6.606c0,0,0-0.011,0.011-0.033C311.587,94.538,354,72.955,354,72.955c3.63,1.09,7.173,2.224,10.628,3.401
		c4.458,1.493,8.764,3.041,12.928,4.633h0.011c11.816,4.513,22.455,9.32,31.949,14.181c14.639,7.489,26.575,15.097,35.928,21.877
		c2.987,2.147,5.712,4.218,8.164,6.18c12.459,9.887,18.389,16.819,18.389,16.819C473.533,162.415,461.968,196.347,461.968,196.347z"
		/>
	<path style="fill:#B77D4E;" d="M200.523,207.15l-15.173,71.899c-9.145-5.363-17.332-10.704-24.286-15.533
		c0.403-6.072,1.395-13.113,3.532-20.089C170.296,224.852,200.523,207.15,200.523,207.15z"/>
	<path style="fill:#B77D4E;" d="M256.051,221.028c0,0,18.093,43.654,18.093,63.82l-13.936,25.764l-25.85-6.688L256.051,221.028z"/>
	<path style="fill:#C98C51;" d="M268.391,280.412c0,0-2.314-32.392-12.34-59.385c0,0-29.307-13.111-55.529-13.882
		c0,0-24.816,24.111-30.078,41.646c-5.262,17.535-6.941,92.548-6.941,92.548s29.645,32.392,45.07,57.842h84.835l0,0
		c-4.697-10.333-15-16.967-26.35-16.967h-28.407l-14.992-29.307C223.66,352.908,251.424,315.118,268.391,280.412z"/>
	<polygon style="fill:#B77D4E;" points="305.471,229.76 302.331,285.211 320.471,264.682 	"/>
	<path style="fill:#4D4D4D;" d="M390.577,97.413c0,0,9.631,3.845,14.744,14.214l-4.332,4.285c0,0-11.529-3.338-18.229-7.339
		C382.759,108.573,384.54,98.241,390.577,97.413z"/>
	<path style="fill:#A36E46;" d="M358.622,153.934c51.199,8.197,87.606,31.164,99.313,39.427c-10.53,9.156-26.989,9.396-26.989,9.396
		c-15.424-16.972-56.126-16.438-56.126-16.438C364.028,176.302,358.622,153.934,358.622,153.934z"/>
	<path style="fill:#C98C51;" d="M305.471,229.76l9.135,47.836c1.43,7.487,9.933,11.203,16.399,7.167l21.192-13.229l14.603,20.955
		l-2.779-35.68l-31.475,8.021v0c5.695-15.949-5.153-32.994-22.013-34.59L305.471,229.76z"/>
	<path style="fill:#B77D4E;" d="M287.675,215.848c0,0-11.729-22.335-6.3-44.975l8.938,6.606
		C290.313,177.479,284.045,194.047,287.675,215.848z"/>
	<polygon style="fill:#B77D4E;" points="238.651,382.215 218.819,382.215 232.419,376.438 	"/>
	<circle style="fill:#B77D4E;" cx="208.469" cy="147.776" r="7.903"/>
	<circle style="fill:#B77D4E;" cx="345.657" cy="107.989" r="7.903"/>
	<circle style="fill:#B77D4E;" cx="188.623" cy="160.631" r="9.218"/>
	<circle style="fill:#B77D4E;" cx="196.953" cy="273.631" r="9.218"/>
	<circle style="fill:#B77D4E;" cx="107.914" cy="245.653" r="9.218"/>
	<circle style="fill:#B77D4E;" cx="225.91" cy="154.043" r="4.088"/>
	<circle style="fill:#B77D4E;" cx="174.406" cy="295.475" r="4.088"/>
	<circle style="fill:#B77D4E;" cx="198.943" cy="254.054" r="4.088"/>
	<circle style="fill:#B77D4E;" cx="184.171" cy="256.37" r="5.859"/>
	<circle style="fill:#B77D4E;" cx="363.527" cy="118.617" r="5.723"/>
	<circle style="fill:#B77D4E;" cx="368.16" cy="102.811" r="4.088"/>
	<circle style="fill:#B77D4E;" cx="453.567" cy="132.9" r="3.382"/>
	<path style="fill:#B77D4E;" d="M453.608,123.228c-0.818,1.831-2.66,3.096-4.785,3.096c-2.899,0-5.254-2.355-5.254-5.254
		c0-1.613,0.73-3.063,1.875-4.022C448.43,119.195,451.155,121.266,453.608,123.228z"/>
	<circle style="fill:#B77D4E;" cx="439.012" cy="129.79" r="4.088"/>
	<circle style="fill:#B77D4E;" cx="125.354" cy="236.886" r="4.088"/>
	<circle style="fill:#B77D4E;" cx="180.174" cy="310.418" r="6.586"/>
	<circle style="fill:#B77D4E;" cx="168.683" cy="161.674" r="4.088"/>
	<path style="fill:#B77D4E;" d="M409.516,95.17c-20.449-7.587-47.918-5.058-47.918-5.058l3.03-13.756
		c4.458,1.493,8.764,3.041,12.928,4.633h0.011C389.383,85.502,400.021,90.309,409.516,95.17z"/>
	<path style="fill:#B77D4E;" d="M377.556,80.989c0,0-64.803,29.257-88.696,101.58c0,0-31.251-29.802-53.772-36.342
		c0,0-1.529-0.278-4.274-0.565c-41.472-4.339-80.94,18.571-98.368,56.453c-14.332,31.152-39.121,74.048-71.731,88.346
		c-6.932,3.052-14.214,4.796-21.823,4.862C15.184,298.636,0,294.298,0,294.298c88.763-34.847,119.418-105.978,126.53-126.202
		c1.522-4.33,3.94-8.297,7.17-11.557c28.836-29.104,73.909-27.486,95.222-24.72c7.302,0.948,14.231,3.757,20.152,8.134
		l20.405,15.082l8.938,6.606c0,0,0-0.011,0.011-0.033C311.587,94.538,354,72.955,354,72.955
		C362.317,75.462,370.165,78.166,377.556,80.989z"/>
</g>
<g>
</g>
<g>
</g>
<g>
</g>
<g>
</g>
<g>
</g>
<g>
</g>
<g>
</g>
<g>
</g>
<g>
</g>
<g>
</g>
<g>
</g>
<g>
</g>
<g>
</g>
<g>
</g>
<g>
</g>
</svg>
