<?xml version="1.0" encoding="iso-8859-1"?>
<!-- Generator: Adobe Illustrator 18.0.0, SVG Export Plug-In . SVG Version: 6.00 Build 0)  -->
<!DOCTYPE svg PUBLIC "-//W3C//DTD SVG 1.1//EN" "http://www.w3.org/Graphics/SVG/1.1/DTD/svg11.dtd">
<svg version="1.1" id="Capa_1" xmlns="http://www.w3.org/2000/svg" xmlns:xlink="http://www.w3.org/1999/xlink" x="0px" y="0px"
	 viewBox="0 0 444.178 444.178" style="enable-background:new 0 0 444.178 444.178;" xml:space="preserve">
<g>
	<path style="fill:#B77D4E;" d="M355.64,308.052c0,0-44.79,8.22-82.66,14.9c-5.17,0.91-10.22,1.79-15,2.62
		c-3.4,0.59-7.02,1.11-10.82,1.58v0.01c-21.91,2.72-49.4,3.59-70.11,3.82c-17.76,0.18-30.54-0.1-30.54-0.1l-7.01-1.98l-20.75-5.86
		l-21.08-5.96c-2.84,1.09-5.79,2.08-8.82,2.99l-0.01,0.01c-38.25,11.48-88.84,9.2-88.84,9.2c28.14-12.2,78.56-79.62,78.56-79.62
		c15.93-75.37,49.9-112,49.9-112c55.73-21.23,110.94-18.58,110.94-18.58c31.85,5.31,61.61,31.26,61.61,31.26L355.64,308.052z"/>
	<path style="fill:#96633E;" d="M272.98,322.952c-5.17,0.91-10.22,1.79-15,2.62c-3.4,0.59-7.02,1.11-10.82,1.58
		c6.43-12.06,6.15-32.81,6.15-32.81L272.98,322.952z"/>
	<polygon style="fill:#B77D4E;" points="265.122,343.244 262.721,359.456 331.771,359.456 328.168,343.845 314.358,341.443 
		317.36,312.622 310.623,290.943 271.031,273.222 253.31,294.337 	"/>
	<polygon style="fill:#E0D48C;" points="317.73,139.222 326.23,84.722 331.23,86.222 345.23,120.222 	"/>
	<polygon style="fill:#E0D48C;" points="311.232,153.915 299.212,125.865 295.347,133.234 298.785,172.082 	"/>
	<path style="fill:#96633E;" d="M123.73,319.722l-4.98,3.32l-21.08-5.96c-2.84,1.09-5.79,2.08-8.82,2.99l19.19-30.64L123.73,319.722
		z"/>
	<path style="fill:#96633E;" d="M177.05,330.982c-17.76,0.18-30.54-0.1-30.54-0.1l-7.01-1.98l10.23-22.68l8.84-16.41
		c0,0,9.69,41.29,18.16,41.16C176.84,330.972,176.94,330.972,177.05,330.982z"/>
	<polyline style="fill:#E0D48C;" points="298.73,180.222 282.563,163.888 280.23,169.722 291.73,202.222 	"/>
	<polygon style="fill:#B77D4E;" points="102.365,313.823 110.17,343.244 107.768,359.456 176.819,359.456 173.216,343.845 
		159.406,341.443 162.408,312.622 158.569,289.812 137.831,279.632 108.044,289.435 	"/>
	<polygon style="fill:#E0D48C;" points="287.438,204.222 275.438,213.888 287.104,220.888 	"/>
	<polygon style="fill:#E0D48C;" points="288.849,220.449 278.357,231.733 290.905,236.991 	"/>
	<polygon style="fill:#E0D48C;" points="290.816,234.415 282.504,247.39 295.789,250.326 	"/>
	<path style="fill:#E0D48C;" d="M400.232,217.816c0,0,15.238-14.837,17.482-39.282c0.286-3.116,4.529-3.85,5.862-1.019
		c6.277,13.325,13.892,36.636,2.134,55.164C408.194,260.28,400.232,217.816,400.232,217.816z"/>
	<path style="fill:#AF754A;" d="M440.57,304.342l-12.74-14.87l-12.74-3.71l-8.49,18.05l-50.96,4.24c0,0-14.56-5.02-29.44-13.12
		v-0.01c-7.3-3.97-14.68-8.7-20.45-13.94c0,0-28.13-33.97-21.23-87.05c0,0,7.96-39.28,29.72-61.58c0,0,20.17-23.35,45.12-33.97
		l6.37,10.62c0,0-29.73,56.26-6.9,101.38c0,0,20.7-3.71,49.89,2.66c0,0,20.18,8.49,35.04,27.6
		C443.76,240.642,445.88,274.612,440.57,304.342z"/>
	<polygon style="fill:#AF754A;" points="334.942,204.546 364.137,196.584 374.222,217.285 	"/>
	<polygon style="fill:#E0D48C;" points="357.939,198.274 367.853,184.375 367.567,203.623 	"/>
	<circle style="fill:#96633E;" cx="367.563" cy="228.722" r="12.833"/>
	<path style="fill:#4D4D4D;" d="M361.198,233.934c0,0,7.258,0.435,13.598-4.618l-1.47-4.012c0,0-8.312-1.323-13.757-0.785
		C359.569,224.52,357.615,231.607,361.198,233.934z"/>
	<path style="fill:#96633E;" d="M415.09,285.762l-8.49,18.05l-50.96,4.24c0,0-14.56-5.02-29.44-13.12v-0.01l25.2-13.94
		L415.09,285.762z"/>
	<path style="fill:#96633E;" d="M323.73,134.722c0,0-3.575,43.148,11.212,69.824l-4.212,6.676c0,0-26.5-17-22-55.5L323.73,134.722z"
		/>
	<path style="fill:#96633E;" d="M326.23,223.222c0,0-15.63-4.011-29-13.5c0,0-3,11,1,17l25.5,4L326.23,223.222z"/>
	<path style="fill:#96633E;" d="M331.622,253.283l3.108,5.438c0,0-11.388,6.442-25,6.5l-5.5-12
		C304.23,253.222,322.622,258.783,331.622,253.283z"/>
	<polygon style="fill:#96633E;" points="159.406,341.443 137.73,345.222 160.491,331.029 	"/>
	<polygon style="fill:#96633E;" points="314.358,341.443 292.73,346.222 315.803,327.573 	"/>
	<circle style="fill:#96633E;" cx="270.73" cy="150.222" r="10"/>
	<circle style="fill:#96633E;" cx="238.23" cy="137.722" r="10"/>
	<circle style="fill:#96633E;" cx="205.73" cy="139.222" r="10"/>
	<circle style="fill:#96633E;" cx="174.783" cy="144.911" r="8.447"/>
	<circle style="fill:#96633E;" cx="143.23" cy="155.858" r="7.5"/>
	<circle style="fill:#96633E;" cx="126.23" cy="180.722" r="7.5"/>
	<circle style="fill:#96633E;" cx="84.23" cy="267.222" r="7.5"/>
	<circle style="fill:#96633E;" cx="110.73" cy="217.222" r="7.5"/>
	<circle style="fill:#96633E;" cx="100.23" cy="245.472" r="3.75"/>
	<circle style="fill:#96633E;" cx="112.48" cy="236.222" r="3.75"/>
	<circle style="fill:#96633E;" cx="288.038" cy="153.222" r="3.75"/>
	<circle style="fill:#96633E;" cx="63.617" cy="290.768" r="5.644"/>
	<circle style="fill:#96633E;" cx="45.23" cy="307.222" r="5.644"/>
	<circle style="fill:#96633E;" cx="221.98" cy="155.722" r="3.75"/>
	<circle style="fill:#96633E;" cx="154.48" cy="140.222" r="3.75"/>
</g>
<g>
</g>
<g>
</g>
<g>
</g>
<g>
</g>
<g>
</g>
<g>
</g>
<g>
</g>
<g>
</g>
<g>
</g>
<g>
</g>
<g>
</g>
<g>
</g>
<g>
</g>
<g>
</g>
<g>
</g>
</svg>
