<?xml version="1.0" encoding="iso-8859-1"?>
<!-- Generator: Adobe Illustrator 19.0.0, SVG Export Plug-In . SVG Version: 6.00 Build 0)  -->
<svg version="1.1" id="Layer_1" xmlns="http://www.w3.org/2000/svg" xmlns:xlink="http://www.w3.org/1999/xlink" x="0px" y="0px"
	 viewBox="0 0 512 512" style="enable-background:new 0 0 512 512;" xml:space="preserve">
<g>
	<path style="fill:#408A51;" d="M366.873,55.594c-13.931-5.227-29.018-8.073-44.771-8.073H155.093
		C165.524,24.41,150.271,0,150.271,0h170.855C380.054,3.572,366.873,55.594,366.873,55.594z"/>
	<polygon style="fill:#408A51;" points="291.97,468.044 258.627,512 213.476,468.044 	"/>
	<path style="fill:#408A51;" d="M459.427,423.511v0.953c0,0-34.209,47.152-60.25,47.152h-57.202c-37.305-52.296,0-95.257,0-95.257
		h57.202C425.218,376.359,459.427,423.511,459.427,423.511z"/>
</g>
<circle style="fill:#347042;" cx="395.387" cy="416.772" r="9.526"/>
<path style="fill:#4EA963;" d="M449.901,171.748v2.596c0,71.109-57.642,128.751-128.751,128.751H213.474
	c-18.492,0-33.495,14.991-33.495,33.495v6.275c0,18.504,15.003,33.495,33.495,33.495h132.073c0,0-37.305,42.961,0,95.257H213.474
	c-71.109,0-128.751-57.642-128.751-128.751v-6.275c0-71.109,57.642-128.751,128.751-128.751H321.15
	c18.504,0,33.495-15.003,33.495-33.495V172.7c0-18.492-14.991-33.495-33.495-33.495H52.573l46.438-49.903L52.573,43.949h269.529
	c15.753,0,30.839,2.846,44.771,8.073C415.382,70.157,449.901,116.928,449.901,171.748z"/>
<g>
	<path style="fill:#6ABE71;" d="M332.883,58.301c15.753,0,30.839,2.846,44.771,8.073c20.225,7.561,38.003,20.112,51.876,36.137
		c-14.799-22.914-36.725-40.795-62.656-50.488c-13.931-5.227-29.018-8.073-44.771-8.073H52.573l14.695,14.352
		C67.268,58.301,332.883,58.301,332.883,58.301z"/>
	<path style="fill:#6ABE71;" d="M193.058,369.409c4.878,12.469,17.005,21.302,31.195,21.302h112.383
		c4.341-9.084,8.911-14.352,8.911-14.352H213.474C205.789,376.359,198.711,373.763,193.058,369.409z"/>
	<polygon style="fill:#6ABE71;" points="111.694,101.752 99.05,89.403 52.573,139.206 76.709,139.206 	"/>
	<path style="fill:#6ABE71;" d="M95.503,357.216v-6.275c0-71.109,57.642-128.751,128.751-128.751H331.93
		c18.504,0,33.495-15.003,33.495-33.495v-1.643c0-10.809-5.127-20.421-13.08-26.546c1.479,3.781,2.299,7.891,2.299,12.194v1.643
		c0,18.492-14.991,33.495-33.495,33.495H213.474c-71.109,0-128.751,57.642-128.751,128.751v6.275
		c0,32.228,11.84,61.689,31.409,84.274C103.084,407.003,95.503,382.996,95.503,357.216z"/>
</g>
<g>
</g>
<g>
</g>
<g>
</g>
<g>
</g>
<g>
</g>
<g>
</g>
<g>
</g>
<g>
</g>
<g>
</g>
<g>
</g>
<g>
</g>
<g>
</g>
<g>
</g>
<g>
</g>
<g>
</g>
</svg>
