<?xml version="1.0" encoding="iso-8859-1"?>
<!-- Generator: Adobe Illustrator 19.0.0, SVG Export Plug-In . SVG Version: 6.00 Build 0)  -->
<svg version="1.1" id="Layer_1" xmlns="http://www.w3.org/2000/svg" xmlns:xlink="http://www.w3.org/1999/xlink" x="0px" y="0px"
	 viewBox="0 0 512.001 512.001" style="enable-background:new 0 0 512.001 512.001;" xml:space="preserve">
<g>
	<path style="fill:#3B9957;" d="M290.284,70.356c-5.623,0-10.183-4.559-10.183-10.183V12.185c0-5.623,4.559-10.183,10.183-10.183
		c5.624,0,10.183,4.559,10.183,10.183v47.988C300.467,65.797,295.908,70.356,290.284,70.356z"/>
	<path style="fill:#3B9957;" d="M290.284,509.998c-5.623,0-10.183-4.559-10.183-10.183v-47.988c0-5.623,4.559-10.183,10.183-10.183
		c5.624,0,10.183,4.559,10.183,10.183v47.988C300.467,505.439,295.908,509.998,290.284,509.998z"/>
	<path style="fill:#3B9957;" d="M387.87,95.577c-1.727,0-3.477-0.44-5.081-1.366c-4.87-2.812-6.54-9.04-3.727-13.91l23.995-41.559
		c2.81-4.87,9.039-6.54,13.91-3.727c4.87,2.812,6.54,9.04,3.727,13.91l-23.995,41.559C394.812,93.75,391.389,95.577,387.87,95.577z"
		/>
	<path style="fill:#3B9957;" d="M168.686,477.079c-1.727,0-3.477-0.44-5.081-1.366c-4.87-2.812-6.54-9.04-3.727-13.91l23.993-41.559
		c2.81-4.87,9.04-6.54,13.91-3.727c4.87,2.812,6.54,9.04,3.727,13.91l-23.995,41.559
		C175.628,475.253,172.205,477.079,168.686,477.079z"/>
	<path style="fill:#3B9957;" d="M460.266,167.953c-3.521,0-6.942-1.827-8.829-5.093c-2.813-4.87-1.143-11.098,3.727-13.91
		l41.559-23.995c4.874-2.816,11.099-1.142,13.91,3.727c2.813,4.87,1.143,11.098-3.727,13.91l-41.559,23.995
		C463.745,167.514,461.993,167.953,460.266,167.953z"/>
	<path style="fill:#3B9957;" d="M78.765,387.137c-3.521,0-6.942-1.825-8.829-5.093c-2.813-4.87-1.143-11.098,3.727-13.91
		l41.559-23.995c4.873-2.816,11.099-1.142,13.91,3.727c2.813,4.87,1.143,11.098-3.727,13.91l-41.559,23.995
		C82.242,386.698,80.491,387.137,78.765,387.137z"/>
	<path style="fill:#3B9957;" d="M192.699,95.577c-3.521,0-6.942-1.827-8.829-5.093l-23.993-41.559
		c-2.813-4.87-1.143-11.098,3.727-13.91c4.874-2.813,11.099-1.14,13.91,3.727l23.995,41.559c2.813,4.87,1.143,11.098-3.727,13.91
		C196.178,95.136,194.427,95.577,192.699,95.577z"/>
	<path style="fill:#3B9957;" d="M411.885,477.079c-3.521,0-6.942-1.827-8.827-5.093l-23.995-41.559
		c-2.813-4.87-1.143-11.098,3.727-13.91c4.874-2.814,11.099-1.143,13.91,3.727l23.995,41.559c2.813,4.87,1.143,11.098-3.727,13.91
		C415.362,476.639,413.611,477.079,411.885,477.079z"/>
	<path style="fill:#3B9957;" d="M120.303,167.953c-1.727,0-3.477-0.44-5.081-1.366l-41.559-23.995
		c-4.87-2.812-6.54-9.04-3.727-13.91c2.812-4.871,9.039-6.54,13.91-3.727l41.559,23.995c4.87,2.812,6.54,9.04,3.727,13.91
		C127.245,166.128,123.822,167.953,120.303,167.953z"/>
	<path style="fill:#3B9957;" d="M501.806,387.137c-1.727,0-3.477-0.44-5.081-1.366l-41.559-23.995
		c-4.87-2.812-6.54-9.04-3.727-13.91c2.812-4.871,9.039-6.541,13.91-3.727l41.559,23.995c4.87,2.812,6.54,9.04,3.727,13.91
		C508.748,385.311,505.325,387.137,501.806,387.137z"/>
</g>
<path style="fill:#61BD6D;" d="M488.027,255.363c0,1.706-0.025,3.411-0.064,5.117c-0.178,6.886-0.7,13.671-1.566,20.366
	c-12.499,97.17-95.541,172.256-196.109,172.256c-97.908,0-179.18-71.166-194.951-164.581L0,363.556l37.244-109.313L0,147.17
	l95.337,75.035c15.771-93.415,97.043-164.581,194.951-164.581C399.487,57.624,488.027,146.151,488.027,255.363z"/>
<g>
	<path style="fill:#3B9957;" d="M347.354,166.684c-1.727,0-3.477-0.44-5.081-1.365c-4.87-2.812-6.54-9.041-3.728-13.911
		l13.853-23.995c2.813-4.871,9.042-6.537,13.911-3.728c4.87,2.812,6.54,9.041,3.728,13.911l-13.853,23.995
		C354.297,164.859,350.874,166.684,347.354,166.684z"/>
	<path style="fill:#3B9957;" d="M219.343,388.407c-1.727,0-3.477-0.44-5.081-1.365c-4.87-2.812-6.54-9.041-3.728-13.911
		l13.853-23.995c2.813-4.871,9.041-6.537,13.911-3.728c4.87,2.812,6.54,9.041,3.728,13.911l-13.853,23.995
		C226.285,386.58,222.862,388.407,219.343,388.407z"/>
	<path style="fill:#3B9957;" d="M233.215,166.684c-3.521,0-6.942-1.827-8.83-5.093l-13.853-23.995
		c-2.812-4.87-1.142-11.099,3.728-13.911c4.874-2.809,11.098-1.14,13.911,3.728l13.853,23.995c2.812,4.87,1.142,11.099-3.728,13.911
		C236.693,166.243,234.942,166.684,233.215,166.684z"/>
	<path style="fill:#3B9957;" d="M361.227,388.407c-3.521,0-6.942-1.827-8.83-5.093l-13.853-23.995
		c-2.812-4.87-1.142-11.099,3.728-13.911c4.873-2.81,11.098-1.14,13.911,3.728l13.853,23.995c2.812,4.87,1.142,11.099-3.728,13.911
		C364.705,387.967,362.953,388.407,361.227,388.407z"/>
	<path style="fill:#3B9957;" d="M290.284,204.653c-5.623,0-10.183-4.559-10.183-10.183v-14.777c0-5.623,4.559-10.183,10.183-10.183
		c5.624,0,10.183,4.559,10.183,10.183v14.777C300.467,200.094,295.908,204.653,290.284,204.653z"/>
	<path style="fill:#3B9957;" d="M290.284,341.217c-5.623,0-10.183-4.559-10.183-10.183v-14.777c0-5.623,4.559-10.183,10.183-10.183
		c5.624,0,10.183,4.559,10.183,10.183v14.777C300.467,336.658,295.908,341.217,290.284,341.217z"/>
	<path style="fill:#3B9957;" d="M343.03,235.101c-3.521,0-6.942-1.827-8.829-5.093c-2.813-4.87-1.143-11.098,3.727-13.91
		l12.797-7.389c4.874-2.814,11.099-1.142,13.91,3.727c2.813,4.87,1.143,11.098-3.727,13.91l-12.797,7.389
		C346.508,234.661,344.756,235.101,343.03,235.101z"/>
	<path style="fill:#3B9957;" d="M224.763,303.384c-3.521,0-6.942-1.825-8.829-5.093c-2.812-4.87-1.142-11.099,3.728-13.911
		l12.799-7.389c4.872-2.81,11.098-1.14,13.911,3.728c2.812,4.87,1.143,11.099-3.728,13.911l-12.799,7.389
		C228.24,302.943,226.489,303.384,224.763,303.384z"/>
	<path style="fill:#3B9957;" d="M237.541,235.101c-1.727,0-3.477-0.44-5.081-1.365l-12.799-7.389
		c-4.87-2.812-6.54-9.041-3.728-13.911c2.813-4.871,9.04-6.537,13.911-3.728l12.799,7.389c4.87,2.812,6.54,9.041,3.728,13.911
		C244.483,233.276,241.06,235.101,237.541,235.101z"/>
	<path style="fill:#3B9957;" d="M355.807,303.384c-1.727,0-3.477-0.44-5.081-1.366l-12.797-7.389c-4.87-2.812-6.54-9.04-3.727-13.91
		c2.81-4.871,9.04-6.54,13.91-3.727l12.797,7.389c4.87,2.812,6.54,9.04,3.727,13.91C362.75,301.557,359.327,303.384,355.807,303.384
		z"/>
	<path style="fill:#3B9957;" d="M186.744,265.547h-27.022c-5.623,0-10.183-4.559-10.183-10.183c0-5.624,4.559-10.183,10.183-10.183
		h27.022c5.623,0,10.183,4.559,10.183,10.183C196.927,260.987,192.367,265.547,186.744,265.547z"/>
</g>
<g>
	<circle style="fill:#33854B;" cx="419.254" cy="196.81" r="10.183"/>
	<path style="fill:#33854B;" d="M487.963,260.48c-0.178,6.886-0.7,13.671-1.566,20.366h-67.245c-5.567,0-10.081-4.514-10.081-10.081
		v-0.204c0-5.567,4.514-10.081,10.081-10.081H487.963z"/>
</g>
<g>
</g>
<g>
</g>
<g>
</g>
<g>
</g>
<g>
</g>
<g>
</g>
<g>
</g>
<g>
</g>
<g>
</g>
<g>
</g>
<g>
</g>
<g>
</g>
<g>
</g>
<g>
</g>
<g>
</g>
</svg>
