<?xml version="1.0" encoding="iso-8859-1"?>
<!-- Generator: Adobe Illustrator 19.0.0, SVG Export Plug-In . SVG Version: 6.00 Build 0)  -->
<svg version="1.1" id="Layer_1" xmlns="http://www.w3.org/2000/svg" xmlns:xlink="http://www.w3.org/1999/xlink" x="0px" y="0px"
	 viewBox="0 0 512 512" style="enable-background:new 0 0 512 512;" xml:space="preserve">
<g>
	<path style="fill:#408A51;" d="M304.279,370.216c-45.167,5.056-87.775,16.502-126.654,33.027
		c-9.27-22.425-23.813-52.412-35.114-74.236L304.279,370.216z"/>
	<path style="fill:#408A51;" d="M397.791,243.783l16.758-70.301c6.997-29.108-6.321-60.394-33.571-72.791
		c-15.026-6.836-37.369,2.038-58.738,2.049c-30.4,0.016-61.242-7.774-78.481,4.008c-23.212,15.865-28.82,48.059-18.129,74.063
		l23.892,58.536L397.791,243.783z"/>
</g>
<path style="fill:#4EA963;" d="M114.395,322.646l150.919,43.547c56.24,12.089,114.903,5.161,166.78-19.697L512,308.207
	l-95.502-58.618c-41.883-25.708-92.415-33.288-139.997-21.001l-162.106,52.964V322.646z"/>
<g>
	<circle style="fill:#408A51;" cx="425.271" cy="297.415" r="8.885"/>
	<path style="fill:#408A51;" d="M337.289,283.318c-7.784,0-14.096-6.311-14.096-14.096c0-7.785,6.311-14.096,14.096-14.096V283.318z
		"/>
	<path style="fill:#408A51;" d="M337.289,311.509c-7.784,0-14.096-6.311-14.096-14.096c0-7.784,6.311-14.096,14.096-14.096V311.509z
		"/>
	<path style="fill:#408A51;" d="M337.289,339.702c-7.784,0-14.096-6.311-14.096-14.096c0-7.784,6.311-14.096,14.096-14.096V339.702z
		"/>
	<path style="fill:#408A51;" d="M295.085,283.318c-7.784,0-14.096-6.311-14.096-14.096c0-7.785,6.311-14.096,14.096-14.096V283.318z
		"/>
	<path style="fill:#408A51;" d="M295.085,311.509c-7.784,0-14.096-6.311-14.096-14.096c0-7.784,6.311-14.096,14.096-14.096V311.509z
		"/>
	<path style="fill:#408A51;" d="M295.085,339.702c-7.784,0-14.096-6.311-14.096-14.096c0-7.784,6.311-14.096,14.096-14.096V339.702z
		"/>
	<path style="fill:#408A51;" d="M117.727,322.126C90.737,349.483,58.357,390.622,0,413.895c53.248-64.207,53.248-160.496,0-224.702
		c58.357,23.272,90.737,64.411,117.727,91.769V322.126z"/>
</g>
<g>
</g>
<g>
</g>
<g>
</g>
<g>
</g>
<g>
</g>
<g>
</g>
<g>
</g>
<g>
</g>
<g>
</g>
<g>
</g>
<g>
</g>
<g>
</g>
<g>
</g>
<g>
</g>
<g>
</g>
</svg>
