<?xml version="1.0" encoding="iso-8859-1"?>
<!-- Generator: Adobe Illustrator 19.0.0, SVG Export Plug-In . SVG Version: 6.00 Build 0)  -->
<svg version="1.1" id="Layer_1" xmlns="http://www.w3.org/2000/svg" xmlns:xlink="http://www.w3.org/1999/xlink" x="0px" y="0px"
	 viewBox="0 0 512 512" style="enable-background:new 0 0 512 512;" xml:space="preserve">
<path style="fill:#6ABE71;" d="M199.622,300.297c34.215-2.599,62.13,27.817,62.13,62.13C261.753,411.901,168.354,512,134.04,512
	h-0.575c92.565,0,173.171-53.356,215.046-132.167c26.614-50.089,60.994-95.643,102.888-133.879l1.347-1.23l-9.859-8.082
	c-40.61-33.292-74.829-73.534-102.279-118.301C296.976,47.18,220.507,0,133.465,0C114.27,0,95.59,2.294,77.663,6.634
	c34.313,0,166.831,85.411,166.831,134.885c0,34.313-28.161,66.983-62.13,62.13C85.717,189.843,59.254,92.045,59.254,92.045
	c0,78.526,29.915,78.526,29.915,157.052s-29.915,78.526-29.915,157.052C59.254,406.148,108.728,307.2,199.622,300.297z"/>
<g>
	<circle style="fill:#3B804B;" cx="356.099" cy="227.811" r="9.204"/>
	<path style="fill:#3B804B;" d="M335.706,361.429c-32.591,61.338-88.644,107.251-155.533,124.598
		C162.1,501.609,145.063,511.91,134.04,512c92.26-0.277,172.557-53.555,214.322-132.162c22.808-42.925,51.337-82.503,85.394-117.017
		C397.046,292.307,356.537,322.226,335.706,361.429z"/>
	<path style="fill:#3B804B;" d="M254.746,332.877c-10.378-20.492-31.215-34.805-55.123-32.987
		c-90.894,6.903-140.369,105.852-140.369,105.852c0-32.975,5.281-52.109,11.402-69.022
		C222.703,229.637,252.824,326.008,254.746,332.877z"/>
</g>
<g>
</g>
<g>
</g>
<g>
</g>
<g>
</g>
<g>
</g>
<g>
</g>
<g>
</g>
<g>
</g>
<g>
</g>
<g>
</g>
<g>
</g>
<g>
</g>
<g>
</g>
<g>
</g>
<g>
</g>
</svg>
