<?xml version="1.0" encoding="iso-8859-1"?>
<!-- Generator: Adobe Illustrator 19.0.0, SVG Export Plug-In . SVG Version: 6.00 Build 0)  -->
<svg xmlns="http://www.w3.org/2000/svg" xmlns:xlink="http://www.w3.org/1999/xlink" version="1.1" id="Layer_1" x="0px" y="0px" viewBox="0 0 511.998 511.998" style="enable-background:new 0 0 511.998 511.998;" xml:space="preserve" width="512px" height="512px">
<g>
	<g>
		<path d="M452.169,136.647c-1.537-2.574-4.568-4.03-7.541-3.627c-3.318,0.451-5.993,3.109-6.502,6.416    c-0.523,3.408,1.447,6.827,4.619,8.139c3.052,1.288,6.732,0.347,8.806-2.23C453.534,142.882,453.793,139.367,452.169,136.647z" fill="#FFFFFF"/>
	</g>
</g>
<g>
	<g>
		<path d="M507.846,144.923c-17.416-23.368-45.228-37.318-74.401-37.318h-9.084c-18.448,0-33.457,15.009-33.457,33.457v35.64    c-3.115-2.688-6.36-5.293-9.718-7.82c0.032-0.098,0.074-0.198,0.105-0.296c11.733-35.418-7.537-73.785-42.956-85.527    c-1.915-0.634-4.003-0.483-5.806,0.423c-1.802,0.905-3.171,2.49-3.805,4.404l-15.514,46.835c-2.416-0.754-4.852-1.476-7.31-2.165    c2.304-16.955-1.796-33.894-11.69-47.97c-10.396-14.787-25.928-24.641-43.738-27.745c-4.139-0.721-8.075,2.048-8.797,6.185    l-10.261,58.846c-2.769-0.065-5.552-0.103-8.354-0.103c-1.342,0-2.68,0.014-4.014,0.039c-7.53-29.865-35.749-50.341-67.136-47.497    c-2.008,0.182-3.864,1.155-5.154,2.704s-1.915,3.547-1.733,5.556l4.805,52.962c-4.728,1.904-9.378,4.002-13.949,6.297    c-16.49-23.645-47.823-32.419-74.591-19.791c-1.825,0.861-3.232,2.41-3.912,4.308c-0.682,1.898-0.581,3.99,0.279,5.813    l23.706,50.253c-0.658,0.679-1.316,1.359-1.969,2.048c-8.924-6.64-19.67-10.478-30.957-10.952    c-14.018-0.589-27.656,4.086-38.382,13.16c-1.54,1.303-2.499,3.164-2.667,5.174c-0.167,2.01,0.471,4.005,1.774,5.544    l32.426,38.305c-3.211,5.548-6.275,11.202-9.122,16.926c-1.87,3.76-0.337,8.325,3.424,10.194c3.758,1.87,8.325,0.337,10.194-3.424    c4.243-8.533,8.952-16.934,14-24.968c18.017-28.679,39.262-51.414,63.144-67.574c26.646-18.031,56.849-27.972,89.902-29.622    c0.002,0,0.005,0,0.008,0c3.28-0.163,6.587-0.248,9.922-0.248c39.28,0,75.038,6.651,106.277,19.767    c31.949,13.413,52.227,30.77,63.613,42.968c2.13,2.283,5.442,3.032,8.346,1.886c2.906-1.146,4.816-3.951,4.816-7.075v-53.461    c0-10.063,8.187-18.25,18.25-18.25h9.084c24.393,0,47.647,11.662,62.208,31.201c0.744,0.998,1.138,2.245,1.138,3.605    c0,1.671-0.654,3.247-1.817,4.415c-1.191,1.186-2.767,1.839-4.439,1.839h-64.177c-4.2,0-7.604,3.405-7.604,7.604    s3.404,7.604,7.604,7.604h11.68v53.998c0,25.177-10.967,49.001-30.09,65.363c-3.191,2.73-3.565,7.53-0.833,10.722    c1.504,1.758,3.636,2.66,5.781,2.66c1.749,0,3.507-0.6,4.94-1.827c22.504-19.255,35.411-47.292,35.411-76.919v-53.998h37.29    c5.721,0,11.108-2.227,15.192-6.294c4.043-4.061,6.272-9.448,6.272-15.169C512,152.956,510.563,148.565,507.846,144.923z     M49.962,222.049l-23.809-28.125c13.457-7.54,30.373-6.78,43.076,1.979C62.475,203.994,56.046,212.716,49.962,222.049z     M114.704,154.251c-7.518,5.089-14.776,10.785-21.775,17.042l-18.004-38.166c17.652-4.926,36.552,1.477,47.566,16.132    C119.868,150.856,117.269,152.515,114.704,154.251z M164.625,130.296l-3.715-40.934c19.681,1.31,36.596,14.573,42.58,33.308    C190.073,123.917,177.103,126.464,164.625,130.296z M291.03,128.84c-14.169-3.117-28.952-5.214-44.3-6.267l8.528-48.909    c10.688,3.494,19.928,10.306,26.511,19.669C289.114,103.782,292.335,116.267,291.03,128.84z M368.004,159.778    c-10.168-6.445-21.158-12.177-32.78-17.057c-2.516-1.056-5.068-2.06-7.637-3.038l13.01-39.273    C362.263,111.276,373.849,135.957,368.004,159.778z" fill="#FFFFFF"/>
	</g>
</g>
<g>
	<g>
		<path d="M398.489,323.014c3.732-1.927,5.194-6.514,3.268-10.245c-1.929-3.733-6.518-5.194-10.246-3.268l-17.47,9.023v-14.747    c0-4.199-3.404-7.604-7.604-7.604s-7.604,3.405-7.604,7.604v119.548c0,4.199,3.404,7.604,7.604,7.604h1.623    c6.491,0,12.131,3.715,14.904,9.13h-50.297v-63.787c0-4.199-3.404-7.604-7.604-7.604c-5.201,0-9.433-4.232-9.433-9.433V329.63    c0-4.199-3.404-7.604-7.604-7.604c-4.2,0-7.604,3.405-7.604,7.604v7.604H177.07c4.386-7.026,6.932-15.313,6.932-24.188v-24.837    c0-4.199-3.404-7.604-7.604-7.604s-7.604,3.405-7.604,7.604v24.838c0,16.877-13.731,30.607-30.607,30.607    c-4.2,0-7.604,3.405-7.604,7.604v67.749c0,4.199,3.404,7.604,7.604,7.604h1.911c8.93,0,16.58,5.588,19.634,13.451H95.785    L68.734,294.909c-0.77-4.128-4.747-6.85-8.868-6.082c-4.128,0.77-6.852,4.74-6.082,8.868l8.511,45.672l-47.087,77.222v-28.381    c0-36.855,6.544-72.753,19.452-106.695c1.492-3.926-0.481-8.318-4.405-9.81c-3.926-1.492-8.318,0.479-9.811,4.404    C6.878,315.783,0,353.499,0,392.208v55.457c0,3.408,2.267,6.4,5.548,7.321c0.682,0.192,1.373,0.284,2.056,0.284    c2.603,0,5.088-1.341,6.492-3.646l52.368-85.882l15.527,83.316c0.671,3.6,3.813,6.211,7.475,6.211h79.289    c4.2,0,7.604-3.405,7.604-7.604c0-18.059-13.269-33.076-30.569-35.817v-53.618c5.667-0.951,10.981-2.954,15.744-5.788h138.887    v6.795c0,10.935,7.16,20.229,17.037,23.44v64.987c0,4.199,3.404,7.604,7.604,7.604h67.335c4.2,0,7.604-3.405,7.604-7.604    c0-15.569-11.196-28.573-25.96-31.38v-80.644L398.489,323.014z" fill="#FFFFFF"/>
	</g>
</g>
<g>
</g>
<g>
</g>
<g>
</g>
<g>
</g>
<g>
</g>
<g>
</g>
<g>
</g>
<g>
</g>
<g>
</g>
<g>
</g>
<g>
</g>
<g>
</g>
<g>
</g>
<g>
</g>
<g>
</g>
</svg>
