<?xml version="1.0" encoding="iso-8859-1"?>
<!-- Generator: Adobe Illustrator 18.0.0, SVG Export Plug-In . SVG Version: 6.00 Build 0)  -->
<!DOCTYPE svg PUBLIC "-//W3C//DTD SVG 1.1//EN" "http://www.w3.org/Graphics/SVG/1.1/DTD/svg11.dtd">
<svg version="1.1" id="Capa_1" xmlns="http://www.w3.org/2000/svg" xmlns:xlink="http://www.w3.org/1999/xlink" x="0px" y="0px"
	 viewBox="0 0 472.316 472.316" style="enable-background:new 0 0 472.316 472.316;" xml:space="preserve">
<g>
	<path style="fill:#967D5F;" d="M207.566,162.864c0,0-1-38-29-56c0,0,20,40,14.5,62.5L207.566,162.864z"/>
	<path style="fill:#967D5F;" d="M176.859,173.464c0,0-12.421-35.927-44.547-44.638c0,0,31.139,32.1,32.685,55.21L176.859,173.464z"
		/>
	<path style="fill:#967D5F;" d="M150.937,195.627c0,0-20.887-31.76-54.17-32.29c0,0,38.086,23.441,45.277,45.459L150.937,195.627z"
		/>
	<path style="fill:#967D5F;" d="M128.748,221.471c0,0-29.101-24.456-61.144-15.441c0,0,43.2,11.564,56.391,30.604L128.748,221.471z"
		/>
	<path style="fill:#967D5F;" d="M115.658,267.244c0,0-19.003-32.922-52.199-35.388c0,0,36.657,25.618,42.554,48.017L115.658,267.244
		z"/>
	<path style="fill:#967D5F;" d="M25.033,314.557c0,0-25.46-17.928-25.028-45.192c0,0,18.201,31.793,36.041,38.254L25.033,314.557z"
		/>
	<path style="fill:#967D5F;" d="M28.414,305.004c0,0-9.562-29.635,7.178-51.159c0,0-4.575,36.348,5.795,52.237L28.414,305.004z"/>
	<path style="fill:#967D5F;" d="M74.478,288.038c0,0-24.786-18.849-23.355-46.079c0,0,17.024,32.439,34.615,39.549L74.478,288.038z"
		/>
	<path style="fill:#967D5F;" d="M227.082,170.559c0,0-5.584-14.032-6.252-33.587c0,0,5.141-20.095,16.368-36.825
		c0,0,13.489,19.047,16.368,36.825c0,0-0.488,17.395-6.252,33.587H227.082z"/>
	<path style="fill:#967D5F;" d="M381.083,218.185c0,0-5.043-3.824-8.394-10.721c0,0-0.43-8.374,2.803-16.877
		c0,0,9.901,3.887,14.122,9.657c0,0,2.421,6.374,1.929,13.479L381.083,218.185z"/>
	<path style="fill:#967D5F;" d="M403.164,208.179c0,0-3.6-4.032-5.279-10.362c0,0,1.012-7.089,5.116-13.687
		c0,0,7.662,4.881,10.254,10.409c0,0,0.985,5.74-0.592,11.614L403.164,208.179z"/>
	<path style="fill:#967D5F;" d="M424.835,202.825c0,0-2.26-3.674-2.687-8.882c0,0,1.793-5.426,5.945-10.03
		c0,0,5.331,4.912,6.589,9.62c0,0-0.035,4.647-2.1,9.039L424.835,202.825z"/>
	<path style="fill:#967D5F;" d="M256.328,180.589c0,0,0.887-12.417,7.403-27.171c0,0,11.022-13.072,25.354-21.464
		c0,0,3.182,18.974-1.056,33.202c0,0-6.6,12.736-16.684,22.687L256.328,180.589z"/>
	<path style="fill:#967D5F;" d="M286.484,203.944c0,0,3.316-12.539,12.848-26.379c0,0,13.818-11.244,30.117-17.055
		c0,0-0.422,20.04-7.52,33.784c0,0-9.226,11.758-21.479,19.989L286.484,203.944z"/>
	<path style="fill:#967D5F;" d="M325.099,230.578c0,0,0.737-11.586,6.705-25.393c0,0,10.183-12.271,23.486-20.201
		c0,0,3.106,17.671-0.742,30.97c0,0-6.061,11.925-15.393,21.279L325.099,230.578z"/>
	<path style="fill:#79B585;" d="M472.316,224.344c0,0-14.53,12.29-31.77,24.28c-11.81,8.2-26.2,11.92-40.49,10.3
		c-3.33-0.38-6.47-0.49-8.79-0.07c0,0-48.77,21.02-87.79,50.28c0,0-63.04,24.76-149.33,11.26c0,0-67.54-19.51-86.3-18.01
		s-66.03,28.51-66.03,28.51l2.1-2.57l27.91-34.2c0,0,25.52-17.26,60.79-27.01c0,0,21.01-55.53,39.77-78.04
		c0,0,45.77-31.52,105.05-39.02c0,0,45.03,17.26,78.04,60.78l27.77,16.51c0,0,29.26-8.26,57.03-27.02c0,0,18.76-7.5,44.27-6
		l23.26,9.76l1.38,6.19l-13.92,4.64c-2.1,0.7-3.23,2.97-2.53,5.06c0.55,1.68,2.11,2.74,3.78,2.74c0.42,0,0.85-0.07,1.27-0.21
		l13.15-4.38L472.316,224.344z"/>
	<path style="fill:#DBD6A9;" d="M472.316,224.344c0,0-20.19,17.08-41.21,30.6c-7.31,4.71-16.14,6.53-24.68,4.95
		c-5.38-0.99-11.37-1.73-15.16-1.04c0,0-48.77,21.02-87.79,50.28c0,0-2.53,0.99-7.27,2.47c-6.67,2.09-17.71,5.13-32.23,7.73
		c-18.89,3.39-43.68,6.02-72.41,4.78c-9.86-0.43-20.18-1.3-30.88-2.77c-2.16-0.29-4.34-0.61-6.54-0.95c0,0-67.54-19.51-86.3-18.01
		s-66.03,28.51-66.03,28.51c0.61-0.82,1.31-1.68,2.1-2.57c16.54-18.86,71.11-53.91,143.47-47.7c11.08,0.95,22.1,1.74,33.04,2.28
		h0.05c63.95,3.16,125.02-1.97,176.28-30.8c39.15-22.02,75.49-31.15,96.04-34.84c-0.32,0.84-0.37,1.79-0.06,2.71
		c0.55,1.68,2.11,2.74,3.78,2.74c0.42,0,0.85-0.07,1.27-0.21l13.15-4.38L472.316,224.344z"/>
	<path style="fill:#C9C39B;" d="M193.066,299.364l-1.49,24.74l-0.01,0.01c-9.86-0.43-20.18-1.3-30.88-2.77l8.38-36.98l11.36-1.46
		l0.04-0.01l0.01,0.01L193.066,299.364z"/>
	<path style="fill:#C9C39B;" d="M299.566,295.364l-3.36,16.24c-6.67,2.09-17.71,5.13-32.23,7.73c7.4-15.02-1.63-38.35-1.63-38.35
		L299.566,295.364z"/>
	<path style="fill:#C9C39B;" d="M312.366,278.739c0,0,5.939,13.004,13.82,14.814l-13.62,9.81L312.366,278.739z"/>
	<polygon style="fill:#79B585;" points="131.632,267.863 121.126,301.631 139.136,331.647 142.888,372.168 192.414,372.168 
		194.566,356.864 178.156,351.908 175.325,323.012 187.161,295.628 172.153,267.112 	"/>
	<polygon style="fill:#79B585;" points="281.566,314.614 276.144,345.187 284.713,355.66 284.713,372.168 334.239,372.168 
		335.74,360.912 319.231,355.66 324.066,316.114 308.726,267.112 255.566,269.114 	"/>
	<polygon style="fill:#666666;" points="430.235,203.864 447.557,205.331 446.676,210.029 433.171,212.671 428.18,208.854 	"/>
	<polygon style="fill:#8EBC97;" points="178.156,351.908 162.066,349.364 177.21,342.251 	"/>
	<polygon style="fill:#8EBC97;" points="319.231,355.66 304.066,352.364 320.371,346.34 	"/>
	<g>
		<circle style="fill:#6CA375;" cx="151.566" cy="197.363" r="9.5"/>
		<circle style="fill:#6CA375;" cx="133.566" cy="217.863" r="6"/>
		<circle style="fill:#6CA375;" cx="157.066" cy="217.363" r="6"/>
		<circle style="fill:#6CA375;" cx="291.607" cy="202.553" r="6"/>
		<circle style="fill:#6CA375;" cx="407.439" cy="220.053" r="6"/>
		<circle style="fill:#6CA375;" cx="215.607" cy="264.553" r="6"/>
		<circle style="fill:#6CA375;" cx="271.336" cy="185.824" r="6.77"/>
		<circle style="fill:#6CA375;" cx="270.166" cy="206.758" r="8.6"/>
		<circle style="fill:#6CA375;" cx="287.066" cy="217.363" r="3.75"/>
		<circle style="fill:#6CA375;" cx="414.066" cy="207.363" r="3.75"/>
		<circle style="fill:#6CA375;" cx="310.816" cy="217.363" r="3.75"/>
		<circle style="fill:#6CA375;" cx="200.066" cy="271.614" r="3.75"/>
	</g>
</g>
<g>
</g>
<g>
</g>
<g>
</g>
<g>
</g>
<g>
</g>
<g>
</g>
<g>
</g>
<g>
</g>
<g>
</g>
<g>
</g>
<g>
</g>
<g>
</g>
<g>
</g>
<g>
</g>
<g>
</g>
</svg>
