<?xml version="1.0" encoding="iso-8859-1"?>
<!-- Generator: Adobe Illustrator 18.0.0, SVG Export Plug-In . SVG Version: 6.00 Build 0)  -->
<!DOCTYPE svg PUBLIC "-//W3C//DTD SVG 1.1//EN" "http://www.w3.org/Graphics/SVG/1.1/DTD/svg11.dtd">
<svg version="1.1" id="Capa_1" xmlns="http://www.w3.org/2000/svg" xmlns:xlink="http://www.w3.org/1999/xlink" x="0px" y="0px"
	 viewBox="0 0 456.728 456.728" style="enable-background:new 0 0 456.728 456.728;" xml:space="preserve">
<g>
	<path style="fill:#639E6C;" d="M261.279,188.269c-33.701-15.17-39.615-54.557-39.615-54.557S95.38,52.084,0,21.022
		c0,0,108.056,117.866,78.488,223.254l33.69,25.736l-3.606,10.346c0,0,36.763-10.872,43.742,3.267l3.599,3.602
		c0,0,17.584,8.871,5.245,42.45l23.573-6.392l-2.885,9.745l13.13,29.254c0,0,136.574-5.809,229.054,73.421
		c0,0-41.124-123.271-107.454-214.273c0,0-39.481,2.825-41.51-27.779C273.039,163.051,261.279,188.269,261.279,188.269z"/>
	<path style="fill:#6DAA77;" d="M128.051,242.098c0,0,5.959-33.348-4.922-57.549l19.98,44.505L128.051,242.098z"/>
	<path style="fill:#6DAA77;" d="M171.258,227.604c0,0-14.734-40.561-34.566-66.107c0,0,34.755,52.249,79.22,65.086
		S171.258,227.604,171.258,227.604z"/>
	<path style="fill:#6DAA77;" d="M198.715,309.945c0,0,33.8-2.273,56.665,11.192l-42.051-24.732L198.715,309.945z"/>
	<path style="fill:#6DAA77;" d="M217.852,268.584c0,0,38.704,19.086,61.927,41.594c0,0-48.131-40.265-56.023-85.868
		C215.862,178.707,217.852,268.584,217.852,268.584z"/>
	<path style="fill:#79B585;" d="M456.728,160.357l-18.537,9.326c-9.344,4.7-20.721,0.879-25.317-8.515l-3.668-7.489
		c-1.996-4.075-5.41-7.299-9.593-9.059l-27.909-11.712c-21.379,0.723-36.906,5.236-47.113,9.569
		c-10.241,4.355-15.111,8.532-15.111,8.532c-14.672,14.684-14.736,41.739-14.736,41.739l1.613,73.593l49.613,24.355
		c0,0,2.744,19.349-1.431,38.295l-16.52-31.593c0,0-41.249-17.325-54.476-28.506c0,0,5.44-37.051-2.826-52.846
		c0,0-18.912,12.575-38.127,37.381c0,0,0.429,37.999-6.699,55.128c0,0-21.218,17.132-39.221,21.192c0,0,6.615,12.635,8.298,32.533
		c0,0-24.696-27.984-33.815-32.609l32.96-29.3l-7.752-31.482l-42.519,25.608l27.187-34.895l-30.846-9.997l-31.607,30.756
		c-3.956-9.428-30.089-36.089-30.089-36.089c19.734,3.122,31.861,10.626,31.861,10.626c5.335-17.652,23.952-37.578,23.952-37.578
		c17.612-5.884,55.477-2.707,55.477-2.707c26.132-17.383,40.035-35.331,40.035-35.331c-15.16-9.38-52.509-6.63-52.509-6.63
		c-10.202-14.005-24.498-56.392-24.498-56.392l-30.32-18.759c19.194-2.799,38.299,1.339,38.299,1.339l20.707,51.237l20.743,1.958
		c29.545,2.788,59.105-5.104,83.366-22.195c0.164-0.115,0.326-0.229,0.487-0.342c5.395-3.789,9.712-8.878,12.726-14.741
		c7.804-15.181,20.28-25.582,20.28-25.582c18.81-4.431,33.829,0.669,33.829,0.669l53.873,36.392c4.36,2.949,9.74,3.909,14.82,2.713
		c0.589-0.139,1.172-0.302,1.747-0.502c9.065-3.081,19.011,1.155,23.063,9.836L456.728,160.357z"/>
	<path style="fill:#4D4D4D;" d="M342.005,96.951c0,0,8.531,3.351,13.102,12.491l-3.808,3.809c0,0-10.207-2.894-16.148-6.398
		C335.15,106.853,336.673,97.712,342.005,96.951z"/>
	<path style="fill:#639E6C;" d="M456.728,160.357l-18.537,9.326c-9.344,4.7-20.721,0.879-25.317-8.515l-3.668-7.489
		c-1.996-4.075-5.41-7.299-9.593-9.059l-27.909-11.712c-21.379,0.723-36.906,5.236-47.113,9.569l5.775-20.126l36.283,0.091
		L456.728,160.357z"/>
</g>
<g>
</g>
<g>
</g>
<g>
</g>
<g>
</g>
<g>
</g>
<g>
</g>
<g>
</g>
<g>
</g>
<g>
</g>
<g>
</g>
<g>
</g>
<g>
</g>
<g>
</g>
<g>
</g>
<g>
</g>
</svg>
