<?xml version="1.0" encoding="iso-8859-1"?>
<!-- Generator: Adobe Illustrator 18.0.0, SVG Export Plug-In . SVG Version: 6.00 Build 0)  -->
<!DOCTYPE svg PUBLIC "-//W3C//DTD SVG 1.1//EN" "http://www.w3.org/Graphics/SVG/1.1/DTD/svg11.dtd">
<svg version="1.1" id="Capa_1" xmlns="http://www.w3.org/2000/svg" xmlns:xlink="http://www.w3.org/1999/xlink" x="0px" y="0px"
	 viewBox="0 0 443.185 443.185" style="enable-background:new 0 0 443.185 443.185;" xml:space="preserve">
<g>
	<path style="fill:#869369;" d="M165.444,190.636c0,0-20.646,4.673-33.466,12.945c0,0-19.28,50.499-19.393,79.555
		c0,0-35.372,8.501-55.022,22.835l2.449,46.697l46.629,24.919l2.284-21.901l-27.622-15.618l-1.402-23.015l68.598-0.165
		c0,0,47.751-41.279,64.391-69.21c0,0,3.169-17.147-4.55-31.548L165.444,190.636z"/>
	<path style="fill:#B8D38D;" d="M441.095,159.91c-4.951,0.431-13.595-4.532-13.595-4.532c-12.089,7.557-33.24,11.329-33.24,11.329
		c-29.456-5.291-75.521-35.495-75.521-35.495l-14.354,73.255c-21.899,29.456-111.786,71.76-111.786,71.76
		s-21.276,3.217-48.943-26.08c-2.277-2.413-4.588-5.041-6.945-7.908c-0.068-0.091-0.147-0.181-0.227-0.261
		c-4.6-5.529-10.82-9.732-18.082-12.893c-4.498-1.971-9.392-3.535-14.547-4.758c-31.779-7.602-73.459-2.402-92.934,0.804
		C4.101,226.254,0,227.127,0,227.127c28.709-34.736,89.127-79.305,150.306-86.85c61.178-7.557,114.8,5.279,114.8,5.279
		c7.557-40.026,33.24-80.053,33.24-80.053c14.762-4.566,29.196-5.381,40.411-4.928c12.881,0.499,21.514,2.662,21.514,2.662
		c52.115,33.988,82.33,70.989,82.33,70.989S444.641,156.398,441.095,159.91z"/>
	<polygon style="fill:#9BAF75;" points="427.497,155.379 414.657,142.539 401.818,143.295 394.265,128.944 379.537,131.21 
		369.34,120.636 354.235,118.37 344.416,107.796 351.741,125.809 367.318,124.393 376.382,139.404 392.526,134.306 398.474,150.167 
		414.335,147.051 421.149,158.702 	"/>
	<path style="fill:#666666;" d="M350.081,80.228c0,0-3.399,4.154-4.154,9.063c0,0,10.952,8.308,22.659,8.686l6.042-4.532
		c0,0-2.266-8.308-10.196-12.462C364.431,80.983,355.745,77.962,350.081,80.228z"/>
	<path style="fill:#9BAF75;" d="M178.969,254.113l-35.313-3.965c-2.277-2.413-4.588-5.041-6.945-7.908
		c-0.068-0.091-0.147-0.181-0.227-0.261c-4.6-5.529-10.82-9.732-18.082-12.893c-4.498-1.971-9.392-3.535-14.547-4.758l13.369-13.833
		l35.347-20.37L178.969,254.113z"/>
	<path style="fill:#9BAF75;" d="M250.76,204.85c0,0-15.622,27.79-15.383,49.289l13.861-7.91L250.76,204.85z"/>
	<path style="fill:#9BAF75;" d="M221.304,218.068c0,0-2.669,25.807,2.706,42.255l-31.412,15.905L221.304,218.068z"/>
	<path style="fill:#9BAF75;" d="M290.791,199.186c0,0,4.898,4.542,5.451,14.157l-24.465,18.815l4.625-33.559L290.791,199.186z"/>
	<path style="fill:#B8D38D;" d="M152.573,190.122c0,0-16.006,13.852-23.414,27.19c0,0,6.798,53.625,20.393,79.305
		c0,0-27.19,24.169-37.764,46.072l24.169,40.03h52.87l-8.308-20.393l-31.722-0.755l-12.085-19.637l60.423-32.477
		c0,0,22.659-58.912,24.169-91.39c0,0-5.287-16.616-18.882-25.68L152.573,190.122z"/>
	<g>
		<path style="fill:#B8D38D;" d="M290.791,199.186c0,12.085-11.109,27.5-11.109,27.5c23.668-15.497,52.65-19.191,52.65-19.191
			c-3.021,35.498-27.946,56.646-27.946,56.646c6.042-13.595,1.511-30.967,1.511-30.967c-17.372,15.861-59.668,31.722-59.668,31.722
			c-3.021-27.19,4.532-60.045,4.532-60.045l19.409-17.014L290.791,199.186z"/>
	</g>
	<path style="fill:#9BAF75;" d="M318.886,87.572c0,0-5.891-21.095-20.393-8.497c-14.343,12.462,3.002,30.192,3.387,30.578
		c-0.521-0.261-18.206-9.301-24.347,11.907c-6.072,20.971,8.282,27.961,9.029,28.312l-21.458-4.317
		c7.557-40.026,33.24-80.053,33.24-80.053c14.762-4.566,29.196-5.381,40.411-4.928C338.757,60.575,317.186,68.313,318.886,87.572z"
		/>
	<path style="fill:#9BAF75;" d="M265.105,145.556L265.105,145.556c0,0-6.265-0.204-31.756-0.77
		c-25.491-0.566-27.19,11.329-27.19,11.329s-9.63-14.162-29.456-13.029s-25.491,14.728-25.491,14.728s-18.127-12.462-39.086-3.399
		C91.167,163.479,92.3,171.409,92.3,171.409s-9.063-5.098-18.127,0c-9.063,5.098-7.364,11.896-7.364,11.896
		s-11.329-2.832-19.26,5.098c-7.931,7.93-8.497,13.595-8.497,13.595s-4.532-2.832-10.763,3.399c-6.231,6.231-6.231,9.63-6.231,9.63
		s-7.659,0.374-11.896,5.665c-0.793,0.986-0.397,2.549,0.759,4.441C4.101,226.254,0,227.127,0,227.127
		c28.709-34.736,89.127-79.305,150.306-86.85C211.484,132.72,265.105,145.556,265.105,145.556z"/>
	<polygon style="fill:#9BAF75;" points="148.797,361.572 133.085,361.572 143.973,353.734 	"/>
	<polygon style="fill:#9BAF75;" points="183.531,382.72 177.867,369.672 174.468,382.72 	"/>
	<polygon style="fill:#9BAF75;" points="174.468,382.72 168.803,369.672 165.404,382.72 	"/>
</g>
<g>
</g>
<g>
</g>
<g>
</g>
<g>
</g>
<g>
</g>
<g>
</g>
<g>
</g>
<g>
</g>
<g>
</g>
<g>
</g>
<g>
</g>
<g>
</g>
<g>
</g>
<g>
</g>
<g>
</g>
</svg>
