<?xml version="1.0" encoding="iso-8859-1"?>
<!-- Generator: Adobe Illustrator 19.0.0, SVG Export Plug-In . SVG Version: 6.00 Build 0)  -->
<svg version="1.1" id="Layer_1" xmlns="http://www.w3.org/2000/svg" xmlns:xlink="http://www.w3.org/1999/xlink" x="0px" y="0px"
	 viewBox="0 0 512 512" style="enable-background:new 0 0 512 512;" xml:space="preserve">
<g>
	<path style="fill:#2969B0;" d="M278.688,162.043c-53.607,9.113-114.531,38.905-150.641,79.383c-3.734,4.192-8.197,7.304-13,9.324
		c2.713-118.993,135.152-140.06,135.152-140.06L278.688,162.043z"/>
	<path style="fill:#2969B0;" d="M320.587,164.991h-18.789v-45.488c0-40.965,33.327-74.292,74.292-74.292h47.528
		c40.964,0,74.29,33.327,74.29,74.292v38.442h-18.789v-38.442c0-30.605-24.898-55.503-55.503-55.503h-47.528
		c-30.604,0-55.502,24.898-55.502,55.503V164.991z"/>
</g>
<path style="fill:#54ACD2;" d="M466.789,311.193c0,4.333-0.176,8.619-0.528,12.859c-0.599,7.41-1.726,14.679-3.335,21.748
	c-15.736,69.284-77.692,120.989-151.733,120.989c-59.432,0-139.45-33.327-183.146-82.308c-0.528-0.587-1.069-1.163-1.621-1.703
	c-15.137-14.961-40.208-13.869-53.408,3.253C53.619,411.209,30.931,431.078,0,429.493c14.597-43.896,23.944-70.987,28.078-93.311
	c7.41-39.974-1.949-64.693-28.078-143.29c30.931-1.585,53.619,18.284,73.019,43.461c10.252,13.293,27.667,16.922,42.029,10.874
	c4.803-2.02,9.265-5.132,13-9.324c36.11-40.479,97.033-70.271,150.641-79.383c11.262-1.914,22.194-2.924,32.505-2.924
	C397.129,155.596,466.789,225.257,466.789,311.193z"/>
<circle style="fill:#475577;" cx="386.349" cy="240.147" r="9.394"/>
<circle style="fill:#FBA026;" cx="487.339" cy="176.734" r="24.661"/>
<g>
	<path style="fill:#EFEFEF;" d="M317.064,335.266c0,0,5.872-36.404,35.229-64.587c0,0-1.174,69.284,14.092,78.679L317.064,335.266z"
		/>
	<path style="fill:#EFEFEF;" d="M396.917,350.532c0,0,8.22-42.275,14.092-56.367c0,0,27.009,44.624,31.706,48.147L396.917,350.532z"
		/>
</g>
<g>
	<path style="fill:#2969B0;" d="M249.362,368.009c-18.849-5.641-43.885-15.47-56.774-30.395l16.44,70.459
		c0,0,11.295,5.315,29.885,7.95c11.683,1.656,22.844-5.444,26.484-16.669l0.141-0.435
		C269.761,385.901,262.473,371.933,249.362,368.009z"/>
	<path style="fill:#2969B0;" d="M466.261,324.051c-0.599,7.41-1.726,14.679-3.335,21.748c-29.91,12.013-56.308,16.464-79.019,16.464
		c-28.172,0-50.672-6.858-67.194-14.691c-33.374-15.83-50.037-38.752-50.73-39.715l-0.075-0.104
		c-2.98-4.164-2.021-9.956,2.143-12.936l0.195-0.14c4.165-2.98,9.958-2.019,12.937,2.148l0.054,0.076
		c0.282,0.376,15.196,20.503,44.366,34.09c39.187,18.249,84.468,16.781,134.6-4.38L466.261,324.051z"/>
	<path style="fill:#2969B0;" d="M126.426,382.779c-15.137-14.961-40.208-13.869-53.408,3.253
		C53.619,411.209,30.931,431.078,0,429.493c14.597-43.896,23.944-70.987,28.078-93.311
		C84.527,319.53,122.234,376.144,126.426,382.779z"/>
</g>
<circle style="fill:#FAC51C;" cx="487.339" cy="176.734" r="12.917"/>
<g>
</g>
<g>
</g>
<g>
</g>
<g>
</g>
<g>
</g>
<g>
</g>
<g>
</g>
<g>
</g>
<g>
</g>
<g>
</g>
<g>
</g>
<g>
</g>
<g>
</g>
<g>
</g>
<g>
</g>
</svg>
