<?xml version="1.0" encoding="iso-8859-1"?>
<!-- Generator: Adobe Illustrator 19.0.0, SVG Export Plug-In . SVG Version: 6.00 Build 0)  -->
<svg version="1.1" id="Layer_1" xmlns="http://www.w3.org/2000/svg" xmlns:xlink="http://www.w3.org/1999/xlink" x="0px" y="0px"
	 viewBox="0 0 512 512" style="enable-background:new 0 0 512 512;" xml:space="preserve">
<path style="fill:#54ACD2;" d="M432.308,418.91c12.694-23.978,71.934-64.881,49.367-160.793
	c-21.261-90.357-151.427-48.021-166.436-42.814c-0.923,0.32-1.41,0.5-1.41,0.5l0.897-1.41c20.97-39.842,34.365-92.153,34.365-121.3
	C349.09,41.678,307.412,0,255.999,0s-93.09,41.678-93.09,93.09c0,29.475,13.699,82.641,35.079,122.644
	c-5.456-1.974-145.535-51.66-167.663,42.381C7.757,354.027,66.997,394.931,79.69,418.91c12.694,23.978,7.053,77.576-28.209,91.68
	c0,0,61.858-0.796,72.967-45.55c0.212,25.915-2.245,46.96-2.245,46.96c28.377-21.282,40.146-76.09,44.976-113.861
	C182.915,439.767,174.485,512,174.485,512c35.964-26.973,45.256-107.804,47.548-139.54C229.74,431.418,243.412,512,255.999,512
	c12.578,0,26.24-80.47,33.949-139.416c2.306,31.818,11.62,112.478,47.539,139.416c0,0-8.166-69.971,6.579-111.868
	c4.986,37.681,16.834,90.956,44.715,111.868c0,0-2.759-23.626-2.178-51.642c7.808,49.382,73.911,50.231,73.911,50.231
	C425.256,496.485,419.614,442.887,432.308,418.91z"/>
<g>
	<circle style="fill:#475577;" cx="227.426" cy="92.999" r="7.794"/>
	<circle style="fill:#475577;" cx="284.573" cy="92.999" r="7.794"/>
</g>
<g>
	<path style="fill:#4A8EB9;" d="M210.563,364.06c-0.987,19.44-6.594,95.716-34.882,134.276c-0.585,8.444-1.195,13.665-1.195,13.665
		c39.533-29.649,46.838-124.378,48.043-147.437c0.145-2.772-2.068-5.096-4.844-5.096h-2.277
		C212.824,359.467,210.694,361.48,210.563,364.06z"/>
	<path style="fill:#4A8EB9;" d="M158.282,364.06c-0.987,19.44-6.594,95.716-34.882,134.276c-0.585,8.444-1.195,13.665-1.195,13.665
		c39.533-29.649,46.838-124.378,48.043-147.437c0.145-2.772-2.068-5.096-4.844-5.096h-2.277
		C160.542,359.467,158.412,361.48,158.282,364.06z"/>
	<path style="fill:#4A8EB9;" d="M343.481,283.508L343.481,283.508c-1.144,1.602-1.177,3.718-0.156,5.401
		c13.745,22.631,11.877,66.076-6.544,100.381c-15.778,29.382-14.236,83.716-12.479,109.046c3.94,5.371,8.318,10.013,13.186,13.665
		c0,0-9.754-83.535,11.283-122.711c20.179-37.576,20.511-86.142,2.2-106.283C348.912,280.741,345.261,281.016,343.481,283.508z"/>
	<path style="fill:#4A8EB9;" d="M394.777,283.508L394.777,283.508c-1.144,1.602-1.177,3.718-0.156,5.401
		c13.745,22.631,11.877,66.076-6.544,100.381c-15.778,29.382-14.236,83.716-12.479,109.046c3.94,5.371,8.318,10.013,13.186,13.665
		c0,0-9.754-83.535,11.283-122.711c20.179-37.576,20.511-86.142,2.2-106.283C400.207,280.741,396.556,281.016,394.777,283.508z"/>
	<path style="fill:#4A8EB9;" d="M283.978,317.586c-1.948,29.526-17.944,160.107-33.974,188.803c2.007,3.592,4.014,5.609,5.995,5.609
		c17.687,0,37.521-159.123,39.925-193.757c0.194-2.8-2.034-5.174-4.839-5.174h-2.267
		C286.267,313.068,284.146,315.042,283.978,317.586z"/>
</g>
<g>
</g>
<g>
</g>
<g>
</g>
<g>
</g>
<g>
</g>
<g>
</g>
<g>
</g>
<g>
</g>
<g>
</g>
<g>
</g>
<g>
</g>
<g>
</g>
<g>
</g>
<g>
</g>
<g>
</g>
</svg>
